<svg xmlns="http://www.w3.org/2000/svg" xmlns:xlink="http://www.w3.org/1999/xlink" width="820" height="477.62"><rect width="820" height="477.62" rx="0" ry="0" class="a"/><svg height="477.62" viewBox="0 0 82 47.762" width="820" xmlns="http://www.w3.org/2000/svg" xmlns:xlink="http://www.w3.org/1999/xlink"><style>@keyframes i{0%{transform:translateX(0)}1.11%{transform:translateX(-82px)}1.38%{transform:translateX(-164px)}6.02%{transform:translateX(-246px)}6.92%{transform:translateX(-328px)}7.7%{transform:translateX(-410px)}9.19%{transform:translateX(-492px)}9.91%{transform:translateX(-574px)}10.57%{transform:translateX(-656px)}11.22%{transform:translateX(-738px)}11.8%{transform:translateX(-820px)}12.14%{transform:translateX(-902px)}12.49%{transform:translateX(-984px)}14.2%{transform:translateX(-1066px)}14.86%{transform:translateX(-1148px)}15.25%{transform:translateX(-1230px)}15.75%{transform:translateX(-1312px)}16.1%{transform:translateX(-1394px)}17.87%{transform:translateX(-1476px)}18.26%{transform:translateX(-1558px)}19.76%{transform:translateX(-1640px)}21.3%{transform:translateX(-1722px)}21.97%{transform:translateX(-1804px)}22.27%{transform:translateX(-1886px)}23.03%{transform:translateX(-1968px)}23.26%{transform:translateX(-2050px)}24.48%{transform:translateX(-2132px)}25.48%{transform:translateX(-2214px)}25.99%{transform:translateX(-2296px)}27.18%{transform:translateX(-2378px)}28.1%{transform:translateX(-2460px)}29%{transform:translateX(-2542px)}29.59%{transform:translateX(-2624px)}30.61%{transform:translateX(-2706px)}30.98%{transform:translateX(-2788px)}31.84%{transform:translateX(-2870px)}32.1%{transform:translateX(-2952px)}32.52%{transform:translateX(-3034px)}33.2%{transform:translateX(-3116px)}33.57%{transform:translateX(-3198px)}33.73%{transform:translateX(-3280px)}35.58%{transform:translateX(-3362px)}36.4%{transform:translateX(-3444px)}36.65%{transform:translateX(-3526px)}41.12%{transform:translateX(-3608px)}43.63%{transform:translateX(-3690px)}44.43%{transform:translateX(-3772px)}44.99%{transform:translateX(-3854px)}45.39%{transform:translateX(-3936px)}45.85%{transform:translateX(-4018px)}46.89%{transform:translateX(-4100px)}47.12%{transform:translateX(-4182px)}48.54%{transform:translateX(-4264px)}48.69%{transform:translateX(-4346px)}50.29%{transform:translateX(-4428px)}51.2%{transform:translateX(-4510px)}51.79%{transform:translateX(-4592px)}52.57%{transform:translateX(-4674px)}52.96%{transform:translateX(-4756px)}55.24%{transform:translateX(-4838px)}55.58%{transform:translateX(-4920px)}56.46%{transform:translateX(-5002px)}56.66%{transform:translateX(-5084px)}67.56%{transform:translateX(-5166px)}68.29%{transform:translateX(-5412px)}68.32%{transform:translateX(-5576px)}70.82%{transform:translateX(-5822px)}70.84%{transform:translateX(-5986px)}70.85%{transform:translateX(-6068px)}73.35%{transform:translateX(-6232px)}73.36%{transform:translateX(-6314px)}73.44%{transform:translateX(-6478px)}73.45%{transform:translateX(-6560px)}75.95%{transform:translateX(-6806px)}75.98%{transform:translateX(-7052px)}75.99%{transform:translateX(-7216px)}78.48%{transform:translateX(-7462px)}78.5%{transform:translateX(-7626px)}81%{transform:translateX(-7954px)}81.01%{transform:translateX(-8036px)}81.04%{transform:translateX(-8282px)}83.54%{transform:translateX(-8446px)}83.66%{transform:translateX(-8528px)}83.99%{transform:translateX(-8610px)}to{transform:translateX(-8692px)}}.a{fill:#282d35}.c,.d,.e{fill:#a8cc8c;white-space:pre}.d,.e{fill:#b9c0cb}.e{fill:#71bef2}</style><g font-family="Monaco,Consolas,Menlo,'Bitstream Vera Sans Mono','Powerline Symbols',monospace" font-size="1.67"><defs><symbol id="1"><text y="1.67" class="c">01:20:56</text><text x="9.018" y="1.67" class="d">~/dev/argsearch/images/</text><text x="33.066" y="1.67" class="c">master</text></symbol><symbol id="2"><text y="1.67" class="e">-&gt;</text></symbol><symbol id="3"><text y="1.67" class="e">-&gt;</text><text x="3.006" y="1.67" class="d">argsearch</text></symbol><symbol id="4"><text y="1.67" class="e">-&gt;</text><text x="3.006" y="1.67" class="d">argsearch</text><text x="13.026" y="1.67" class="d">grid</text></symbol><symbol id="5"><text y="1.67" class="e">-&gt;</text><text x="3.006" y="1.67" class="d">argsearch</text><text x="13.026" y="1.67" class="d">grid</text><text x="18.036" y="1.67" class="d">3</text></symbol><symbol id="6"><text y="1.67" class="e">-&gt;</text><text x="3.006" y="1.67" class="d">argsearch</text><text x="13.026" y="1.67" class="d">grid</text><text x="18.036" y="1.67" class="d">3</text><text x="20.04" y="1.67" class="d">&quot;echo</text></symbol><symbol id="7"><text y="1.67" class="e">-&gt;</text><text x="3.006" y="1.67" class="d">argsearch</text><text x="13.026" y="1.67" class="d">grid</text><text x="18.036" y="1.67" class="d">3</text><text x="20.04" y="1.67" class="d">&quot;echo</text><text x="26.052" y="1.67" class="d">{a}</text></symbol><symbol id="8"><text y="1.67" class="e">-&gt;</text><text x="3.006" y="1.67" class="d">argsearch</text><text x="13.026" y="1.67" class="d">grid</text><text x="18.036" y="1.67" class="d">3</text><text x="20.04" y="1.67" class="d">&quot;echo</text><text x="26.052" y="1.67" class="d">{a}</text><text x="30.06" y="1.67" class="d">{b};</text></symbol><symbol id="9"><text y="1.67" class="e">-&gt;</text><text x="3.006" y="1.67" class="d">argsearch</text><text x="13.026" y="1.67" class="d">grid</text><text x="18.036" y="1.67" class="d">3</text><text x="20.04" y="1.67" class="d">&quot;echo</text><text x="26.052" y="1.67" class="d">{a}</text><text x="30.06" y="1.67" class="d">{b};</text><text x="35.07" y="1.67" class="d">sleep</text></symbol><symbol id="10"><text y="1.67" class="e">-&gt;</text><text x="3.006" y="1.67" class="d">argsearch</text><text x="13.026" y="1.67" class="d">grid</text><text x="18.036" y="1.67" class="d">3</text><text x="20.04" y="1.67" class="d">&quot;echo</text><text x="26.052" y="1.67" class="d">{a}</text><text x="30.06" y="1.67" class="d">{b};</text><text x="35.07" y="1.67" class="d">sleep</text><text x="41.082" y="1.67" class="d">0.5&quot;</text></symbol><symbol id="11"><text y="1.67" class="e">-&gt;</text><text x="3.006" y="1.67" class="d">argsearch</text><text x="13.026" y="1.67" class="d">grid</text><text x="18.036" y="1.67" class="d">3</text><text x="20.04" y="1.67" class="d">&quot;echo</text><text x="26.052" y="1.67" class="d">{a}</text><text x="30.06" y="1.67" class="d">{b};</text><text x="35.07" y="1.67" class="d">sleep</text><text x="41.082" y="1.67" class="d">0.5&quot;</text><text x="46.092" y="1.67" class="d">--a</text></symbol><symbol id="12"><text y="1.67" class="e">-&gt;</text><text x="3.006" y="1.67" class="d">argsearch</text><text x="13.026" y="1.67" class="d">grid</text><text x="18.036" y="1.67" class="d">3</text><text x="20.04" y="1.67" class="d">&quot;echo</text><text x="26.052" y="1.67" class="d">{a}</text><text x="30.06" y="1.67" class="d">{b};</text><text x="35.07" y="1.67" class="d">sleep</text><text x="41.082" y="1.67" class="d">0.5&quot;</text><text x="46.092" y="1.67" class="d">--a</text><text x="50.1" y="1.67" class="d">1</text></symbol><symbol id="13"><text y="1.67" class="e">-&gt;</text><text x="3.006" y="1.67" class="d">argsearch</text><text x="13.026" y="1.67" class="d">grid</text><text x="18.036" y="1.67" class="d">3</text><text x="20.04" y="1.67" class="d">&quot;echo</text><text x="26.052" y="1.67" class="d">{a}</text><text x="30.06" y="1.67" class="d">{b};</text><text x="35.07" y="1.67" class="d">sleep</text><text x="41.082" y="1.67" class="d">0.5&quot;</text><text x="46.092" y="1.67" class="d">--a</text><text x="50.1" y="1.67" class="d">1</text><text x="52.104" y="1.67" class="d">10</text></symbol><symbol id="14"><text y="1.67" class="e">-&gt;</text><text x="3.006" y="1.67" class="d">argsearch</text><text x="13.026" y="1.67" class="d">grid</text><text x="18.036" y="1.67" class="d">3</text><text x="20.04" y="1.67" class="d">&quot;echo</text><text x="26.052" y="1.67" class="d">{a}</text><text x="30.06" y="1.67" class="d">{b};</text><text x="35.07" y="1.67" class="d">sleep</text><text x="41.082" y="1.67" class="d">0.5&quot;</text><text x="46.092" y="1.67" class="d">--a</text><text x="50.1" y="1.67" class="d">1</text><text x="52.104" y="1.67" class="d">10</text><text x="55.11" y="1.67" class="d">--b</text></symbol><symbol id="15"><text y="1.67" class="e">-&gt;</text><text x="3.006" y="1.67" class="d">argsearch</text><text x="13.026" y="1.67" class="d">grid</text><text x="18.036" y="1.67" class="d">3</text><text x="20.04" y="1.67" class="d">&quot;echo</text><text x="26.052" y="1.67" class="d">{a}</text><text x="30.06" y="1.67" class="d">{b};</text><text x="35.07" y="1.67" class="d">sleep</text><text x="41.082" y="1.67" class="d">0.5&quot;</text><text x="46.092" y="1.67" class="d">--a</text><text x="50.1" y="1.67" class="d">1</text><text x="52.104" y="1.67" class="d">10</text><text x="55.11" y="1.67" class="d">--b</text><text x="59.118" y="1.67" class="d">X</text></symbol><symbol id="16"><text y="1.67" class="e">-&gt;</text><text x="3.006" y="1.67" class="d">argsearch</text><text x="13.026" y="1.67" class="d">grid</text><text x="18.036" y="1.67" class="d">3</text><text x="20.04" y="1.67" class="d">&quot;echo</text><text x="26.052" y="1.67" class="d">{a}</text><text x="30.06" y="1.67" class="d">{b};</text><text x="35.07" y="1.67" class="d">sleep</text><text x="41.082" y="1.67" class="d">0.5&quot;</text><text x="46.092" y="1.67" class="d">--a</text><text x="50.1" y="1.67" class="d">1</text><text x="52.104" y="1.67" class="d">10</text><text x="55.11" y="1.67" class="d">--b</text><text x="59.118" y="1.67" class="d">X</text><text x="61.122" y="1.67" class="d">Y</text></symbol><symbol id="17"><text x="2.004" y="1.67" class="d">0%|</text><text x="60.12" y="1.67" class="d">|</text><text x="62.124" y="1.67" class="d">0/6</text><text x="66.132" y="1.67" class="d">[00:00&lt;?,</text><text x="76.152" y="1.67" class="d">?it/s]</text></symbol><symbol id="18"><text y="1.67" class="d">---</text><text x="4.008" y="1.67" class="d">[0]</text><text x="8.016" y="1.67" class="d">echo</text><text x="13.026" y="1.67" class="d">1</text><text x="15.03" y="1.67" class="d">X;</text><text x="18.036" y="1.67" class="d">sleep</text><text x="24.048" y="1.67" class="d">0.5</text></symbol><symbol id="19"><text y="1.67" class="d">1</text><text x="2.004" y="1.67" class="d">X</text></symbol><symbol id="20"><text x="1.002" y="1.67" class="d">17%|███████▊</text><text x="52.104" y="1.67" class="d">|</text><text x="54.108" y="1.67" class="d">1/6</text><text x="58.116" y="1.67" class="d">[00:00&lt;00:02,</text><text x="73.146" y="1.67" class="d">1.97it/s]</text></symbol><symbol id="21"><text y="1.67" class="d">---</text><text x="4.008" y="1.67" class="d">[1]</text><text x="8.016" y="1.67" class="d">echo</text><text x="13.026" y="1.67" class="d">1</text><text x="15.03" y="1.67" class="d">Y;</text><text x="18.036" y="1.67" class="d">sleep</text><text x="24.048" y="1.67" class="d">0.5</text></symbol><symbol id="22"><text y="1.67" class="d">1</text><text x="2.004" y="1.67" class="d">Y</text></symbol><symbol id="23"><text x="1.002" y="1.67" class="d">33%|███████████████▋</text><text x="52.104" y="1.67" class="d">|</text><text x="54.108" y="1.67" class="d">2/6</text><text x="58.116" y="1.67" class="d">[00:01&lt;00:02,</text><text x="73.146" y="1.67" class="d">1.97it/s]</text></symbol><symbol id="24"><text y="1.67" class="d">---</text><text x="4.008" y="1.67" class="d">[2]</text><text x="8.016" y="1.67" class="d">echo</text><text x="13.026" y="1.67" class="d">5</text><text x="15.03" y="1.67" class="d">X;</text><text x="18.036" y="1.67" class="d">sleep</text><text x="24.048" y="1.67" class="d">0.5</text></symbol><symbol id="25"><text y="1.67" class="d">5</text><text x="2.004" y="1.67" class="d">X</text></symbol><symbol id="26"><text x="1.002" y="1.67" class="d">50%|███████████████████████▌</text><text x="52.104" y="1.67" class="d">|</text><text x="54.108" y="1.67" class="d">3/6</text><text x="58.116" y="1.67" class="d">[00:01&lt;00:01,</text><text x="73.146" y="1.67" class="d">1.95it/s]</text></symbol><symbol id="27"><text y="1.67" class="d">---</text><text x="4.008" y="1.67" class="d">[3]</text><text x="8.016" y="1.67" class="d">echo</text><text x="13.026" y="1.67" class="d">5</text><text x="15.03" y="1.67" class="d">Y;</text><text x="18.036" y="1.67" class="d">sleep</text><text x="24.048" y="1.67" class="d">0.5</text></symbol><symbol id="28"><text y="1.67" class="d">5</text><text x="2.004" y="1.67" class="d">Y</text></symbol><symbol id="29"><text x="1.002" y="1.67" class="d">67%|███████████████████████████████▎</text><text x="52.104" y="1.67" class="d">|</text><text x="54.108" y="1.67" class="d">4/6</text><text x="58.116" y="1.67" class="d">[00:02&lt;00:01,</text><text x="73.146" y="1.67" class="d">1.96it/s]</text></symbol><symbol id="30"><text y="1.67" class="d">---</text><text x="4.008" y="1.67" class="d">[4]</text><text x="8.016" y="1.67" class="d">echo</text><text x="13.026" y="1.67" class="d">10</text><text x="16.032" y="1.67" class="d">X;</text><text x="19.038" y="1.67" class="d">sleep</text><text x="25.05" y="1.67" class="d">0.5</text></symbol><symbol id="31"><text y="1.67" class="d">10</text><text x="3.006" y="1.67" class="d">X</text></symbol><symbol id="32"><text x="1.002" y="1.67" class="d">83%|███████████████████████████████████████▏</text><text x="52.104" y="1.67" class="d">|</text><text x="54.108" y="1.67" class="d">5/6</text><text x="58.116" y="1.67" class="d">[00:02&lt;00:00,</text><text x="73.146" y="1.67" class="d">1.96it/s]</text></symbol><symbol id="33"><text y="1.67" class="d">---</text><text x="4.008" y="1.67" class="d">[5]</text><text x="8.016" y="1.67" class="d">echo</text><text x="13.026" y="1.67" class="d">10</text><text x="16.032" y="1.67" class="d">Y;</text><text x="19.038" y="1.67" class="d">sleep</text><text x="25.05" y="1.67" class="d">0.5</text></symbol><symbol id="34"><text y="1.67" class="d">10</text><text x="3.006" y="1.67" class="d">Y</text></symbol><symbol id="35"><text y="1.67" class="d">100%|███████████████████████████████████████████████|</text><text x="54.108" y="1.67" class="d">6/6</text><text x="58.116" y="1.67" class="d">[00:03&lt;00:00,</text><text x="73.146" y="1.67" class="d">1.96it/s]</text></symbol><symbol id="36"><text y="1.67" class="c">01:21:13</text><text x="9.018" y="1.67" class="d">~/dev/argsearch/images/</text><text x="33.066" y="1.67" class="c">master</text><text x="40.08" y="1.67" style="white-space:pre" fill="#dbab79">4s</text></symbol><symbol id="a"><path fill="transparent" d="M0 0h82v22H0z"/></symbol><symbol id="b"><path fill="#6f7683" d="M0 0h1.102v2.171H0z"/></symbol></defs><path class="a" d="M0 0h82v47.762H0z"/><g style="animation-duration:20.054327s;animation-iteration-count:infinite;animation-name:i;animation-timing-function:steps(1,end)"><svg width="8774"><svg><use xlink:href="#a"/><use xlink:href="#b" x="-.004"/></svg><svg x="82"><use xlink:href="#a"/><use xlink:href="#b" x="-.004"/></svg><svg x="164"><use xlink:href="#a"/><use xlink:href="#b" x="2.996" y="2.146"/><use xlink:href="#1"/><use xlink:href="#2" y="2.171"/></svg><svg x="246"><use xlink:href="#a"/><use xlink:href="#b" x="3.996" y="2.146"/><use xlink:href="#1"/><text y="3.841" class="e">-&gt;</text><text x="3.006" y="3.841" class="d">a</text></svg><svg x="328"><use xlink:href="#a"/><use xlink:href="#b" x="4.996" y="2.146"/><use xlink:href="#1"/><text y="3.841" class="e">-&gt;</text><text x="3.006" y="3.841" class="d">ar</text></svg><svg x="410"><use xlink:href="#a"/><use xlink:href="#b" x="5.996" y="2.146"/><use xlink:href="#1"/><text y="3.841" class="e">-&gt;</text><text x="3.006" y="3.841" class="d">arg</text></svg><svg x="492"><use xlink:href="#a"/><use xlink:href="#b" x="6.996" y="2.146"/><use xlink:href="#1"/><text y="3.841" class="e">-&gt;</text><text x="3.006" y="3.841" class="d">args</text></svg><svg x="574"><use xlink:href="#a"/><use xlink:href="#b" x="7.996" y="2.146"/><use xlink:href="#1"/><text y="3.841" class="e">-&gt;</text><text x="3.006" y="3.841" class="d">argse</text></svg><svg x="656"><use xlink:href="#a"/><use xlink:href="#b" x="8.996" y="2.146"/><use xlink:href="#1"/><text y="3.841" class="e">-&gt;</text><text x="3.006" y="3.841" class="d">argsea</text></svg><svg x="738"><use xlink:href="#a"/><use xlink:href="#b" x="9.996" y="2.146"/><use xlink:href="#1"/><text y="3.841" class="e">-&gt;</text><text x="3.006" y="3.841" class="d">argsear</text></svg><svg x="820"><use xlink:href="#a"/><use xlink:href="#b" x="10.996" y="2.146"/><use xlink:href="#1"/><text y="3.841" class="e">-&gt;</text><text x="3.006" y="3.841" class="d">argsearc</text></svg><svg x="902"><use xlink:href="#a"/><use xlink:href="#b" x="11.996" y="2.146"/><use xlink:href="#1"/><use xlink:href="#3" y="2.171"/></svg><svg x="984"><use xlink:href="#a"/><use xlink:href="#b" x="12.996" y="2.146"/><use xlink:href="#1"/><use xlink:href="#3" y="2.171"/></svg><svg x="1066"><use xlink:href="#a"/><use xlink:href="#b" x="13.996" y="2.146"/><use xlink:href="#1"/><text y="3.841" class="e">-&gt;</text><text x="3.006" y="3.841" class="d">argsearch</text><text x="13.026" y="3.841" class="d">g</text></svg><svg x="1148"><use xlink:href="#a"/><use xlink:href="#b" x="14.996" y="2.146"/><use xlink:href="#1"/><text y="3.841" class="e">-&gt;</text><text x="3.006" y="3.841" class="d">argsearch</text><text x="13.026" y="3.841" class="d">gr</text></svg><svg x="1230"><use xlink:href="#a"/><use xlink:href="#b" x="15.996" y="2.146"/><use xlink:href="#1"/><text y="3.841" class="e">-&gt;</text><text x="3.006" y="3.841" class="d">argsearch</text><text x="13.026" y="3.841" class="d">gri</text></svg><svg x="1312"><use xlink:href="#a"/><use xlink:href="#b" x="16.996" y="2.146"/><use xlink:href="#1"/><use xlink:href="#4" y="2.171"/></svg><svg x="1394"><use xlink:href="#a"/><use xlink:href="#b" x="17.996" y="2.146"/><use xlink:href="#1"/><use xlink:href="#4" y="2.171"/></svg><svg x="1476"><use xlink:href="#a"/><use xlink:href="#b" x="18.996" y="2.146"/><use xlink:href="#1"/><use xlink:href="#5" y="2.171"/></svg><svg x="1558"><use xlink:href="#a"/><use xlink:href="#b" x="19.996" y="2.146"/><use xlink:href="#1"/><use xlink:href="#5" y="2.171"/></svg><svg x="1640"><use xlink:href="#a"/><use xlink:href="#b" x="20.996" y="2.146"/><use xlink:href="#1"/><text y="3.841" class="e">-&gt;</text><text x="3.006" y="3.841" class="d">argsearch</text><text x="13.026" y="3.841" class="d">grid</text><text x="18.036" y="3.841" class="d">3</text><text x="20.04" y="3.841" class="d">&quot;</text></svg><svg x="1722"><use xlink:href="#a"/><use xlink:href="#b" x="21.996" y="2.146"/><use xlink:href="#1"/><text y="3.841" class="e">-&gt;</text><text x="3.006" y="3.841" class="d">argsearch</text><text x="13.026" y="3.841" class="d">grid</text><text x="18.036" y="3.841" class="d">3</text><text x="20.04" y="3.841" class="d">&quot;e</text></svg><svg x="1804"><use xlink:href="#a"/><use xlink:href="#b" x="22.996" y="2.146"/><use xlink:href="#1"/><text y="3.841" class="e">-&gt;</text><text x="3.006" y="3.841" class="d">argsearch</text><text x="13.026" y="3.841" class="d">grid</text><text x="18.036" y="3.841" class="d">3</text><text x="20.04" y="3.841" class="d">&quot;ec</text></svg><svg x="1886"><use xlink:href="#a"/><use xlink:href="#b" x="23.996" y="2.146"/><use xlink:href="#1"/><text y="3.841" class="e">-&gt;</text><text x="3.006" y="3.841" class="d">argsearch</text><text x="13.026" y="3.841" class="d">grid</text><text x="18.036" y="3.841" class="d">3</text><text x="20.04" y="3.841" class="d">&quot;ech</text></svg><svg x="1968"><use xlink:href="#a"/><use xlink:href="#b" x="24.996" y="2.146"/><use xlink:href="#1"/><use xlink:href="#6" y="2.171"/></svg><svg x="2050"><use xlink:href="#a"/><use xlink:href="#b" x="25.996" y="2.146"/><use xlink:href="#1"/><use xlink:href="#6" y="2.171"/></svg><svg x="2132"><use xlink:href="#a"/><use xlink:href="#b" x="26.996" y="2.146"/><use xlink:href="#1"/><text y="3.841" class="e">-&gt;</text><text x="3.006" y="3.841" class="d">argsearch</text><text x="13.026" y="3.841" class="d">grid</text><text x="18.036" y="3.841" class="d">3</text><text x="20.04" y="3.841" class="d">&quot;echo</text><text x="26.052" y="3.841" class="d">{</text></svg><svg x="2214"><use xlink:href="#a"/><use xlink:href="#b" x="27.996" y="2.146"/><use xlink:href="#1"/><text y="3.841" class="e">-&gt;</text><text x="3.006" y="3.841" class="d">argsearch</text><text x="13.026" y="3.841" class="d">grid</text><text x="18.036" y="3.841" class="d">3</text><text x="20.04" y="3.841" class="d">&quot;echo</text><text x="26.052" y="3.841" class="d">{a</text></svg><svg x="2296"><use xlink:href="#a"/><use xlink:href="#b" x="28.996" y="2.146"/><use xlink:href="#1"/><use xlink:href="#7" y="2.171"/></svg><svg x="2378"><use xlink:href="#a"/><use xlink:href="#b" x="29.996" y="2.146"/><use xlink:href="#1"/><use xlink:href="#7" y="2.171"/></svg><svg x="2460"><use xlink:href="#a"/><use xlink:href="#b" x="30.996" y="2.146"/><use xlink:href="#1"/><text y="3.841" class="e">-&gt;</text><text x="3.006" y="3.841" class="d">argsearch</text><text x="13.026" y="3.841" class="d">grid</text><text x="18.036" y="3.841" class="d">3</text><text x="20.04" y="3.841" class="d">&quot;echo</text><text x="26.052" y="3.841" class="d">{a}</text><text x="30.06" y="3.841" class="d">{</text></svg><svg x="2542"><use xlink:href="#a"/><use xlink:href="#b" x="31.996" y="2.146"/><use xlink:href="#1"/><text y="3.841" class="e">-&gt;</text><text x="3.006" y="3.841" class="d">argsearch</text><text x="13.026" y="3.841" class="d">grid</text><text x="18.036" y="3.841" class="d">3</text><text x="20.04" y="3.841" class="d">&quot;echo</text><text x="26.052" y="3.841" class="d">{a}</text><text x="30.06" y="3.841" class="d">{b</text></svg><svg x="2624"><use xlink:href="#a"/><use xlink:href="#b" x="32.996" y="2.146"/><use xlink:href="#1"/><text y="3.841" class="e">-&gt;</text><text x="3.006" y="3.841" class="d">argsearch</text><text x="13.026" y="3.841" class="d">grid</text><text x="18.036" y="3.841" class="d">3</text><text x="20.04" y="3.841" class="d">&quot;echo</text><text x="26.052" y="3.841" class="d">{a}</text><text x="30.06" y="3.841" class="d">{b}</text></svg><svg x="2706"><use xlink:href="#a"/><use xlink:href="#b" x="33.996" y="2.146"/><use xlink:href="#1"/><use xlink:href="#8" y="2.171"/></svg><svg x="2788"><use xlink:href="#a"/><use xlink:href="#b" x="34.996" y="2.146"/><use xlink:href="#1"/><use xlink:href="#8" y="2.171"/></svg><svg x="2870"><use xlink:href="#a"/><use xlink:href="#b" x="35.996" y="2.146"/><use xlink:href="#1"/><text y="3.841" class="e">-&gt;</text><text x="3.006" y="3.841" class="d">argsearch</text><text x="13.026" y="3.841" class="d">grid</text><text x="18.036" y="3.841" class="d">3</text><text x="20.04" y="3.841" class="d">&quot;echo</text><text x="26.052" y="3.841" class="d">{a}</text><text x="30.06" y="3.841" class="d">{b};</text><text x="35.07" y="3.841" class="d">s</text></svg><svg x="2952"><use xlink:href="#a"/><use xlink:href="#b" x="36.996" y="2.146"/><use xlink:href="#1"/><text y="3.841" class="e">-&gt;</text><text x="3.006" y="3.841" class="d">argsearch</text><text x="13.026" y="3.841" class="d">grid</text><text x="18.036" y="3.841" class="d">3</text><text x="20.04" y="3.841" class="d">&quot;echo</text><text x="26.052" y="3.841" class="d">{a}</text><text x="30.06" y="3.841" class="d">{b};</text><text x="35.07" y="3.841" class="d">sl</text></svg><svg x="3034"><use xlink:href="#a"/><use xlink:href="#b" x="37.996" y="2.146"/><use xlink:href="#1"/><text y="3.841" class="e">-&gt;</text><text x="3.006" y="3.841" class="d">argsearch</text><text x="13.026" y="3.841" class="d">grid</text><text x="18.036" y="3.841" class="d">3</text><text x="20.04" y="3.841" class="d">&quot;echo</text><text x="26.052" y="3.841" class="d">{a}</text><text x="30.06" y="3.841" class="d">{b};</text><text x="35.07" y="3.841" class="d">sle</text></svg><svg x="3116"><use xlink:href="#a"/><use xlink:href="#b" x="38.996" y="2.146"/><use xlink:href="#1"/><text y="3.841" class="e">-&gt;</text><text x="3.006" y="3.841" class="d">argsearch</text><text x="13.026" y="3.841" class="d">grid</text><text x="18.036" y="3.841" class="d">3</text><text x="20.04" y="3.841" class="d">&quot;echo</text><text x="26.052" y="3.841" class="d">{a}</text><text x="30.06" y="3.841" class="d">{b};</text><text x="35.07" y="3.841" class="d">slee</text></svg><svg x="3198"><use xlink:href="#a"/><use xlink:href="#b" x="39.996" y="2.146"/><use xlink:href="#1"/><use xlink:href="#9" y="2.171"/></svg><svg x="3280"><use xlink:href="#a"/><use xlink:href="#b" x="40.996" y="2.146"/><use xlink:href="#1"/><use xlink:href="#9" y="2.171"/></svg><svg x="3362"><use xlink:href="#a"/><use xlink:href="#b" x="41.996" y="2.146"/><use xlink:href="#1"/><text y="3.841" class="e">-&gt;</text><text x="3.006" y="3.841" class="d">argsearch</text><text x="13.026" y="3.841" class="d">grid</text><text x="18.036" y="3.841" class="d">3</text><text x="20.04" y="3.841" class="d">&quot;echo</text><text x="26.052" y="3.841" class="d">{a}</text><text x="30.06" y="3.841" class="d">{b};</text><text x="35.07" y="3.841" class="d">sleep</text><text x="41.082" y="3.841" class="d">0</text></svg><svg x="3444"><use xlink:href="#a"/><use xlink:href="#b" x="42.996" y="2.146"/><use xlink:href="#1"/><text y="3.841" class="e">-&gt;</text><text x="3.006" y="3.841" class="d">argsearch</text><text x="13.026" y="3.841" class="d">grid</text><text x="18.036" y="3.841" class="d">3</text><text x="20.04" y="3.841" class="d">&quot;echo</text><text x="26.052" y="3.841" class="d">{a}</text><text x="30.06" y="3.841" class="d">{b};</text><text x="35.07" y="3.841" class="d">sleep</text><text x="41.082" y="3.841" class="d">0.</text></svg><svg x="3526"><use xlink:href="#a"/><use xlink:href="#b" x="43.996" y="2.146"/><use xlink:href="#1"/><text y="3.841" class="e">-&gt;</text><text x="3.006" y="3.841" class="d">argsearch</text><text x="13.026" y="3.841" class="d">grid</text><text x="18.036" y="3.841" class="d">3</text><text x="20.04" y="3.841" class="d">&quot;echo</text><text x="26.052" y="3.841" class="d">{a}</text><text x="30.06" y="3.841" class="d">{b};</text><text x="35.07" y="3.841" class="d">sleep</text><text x="41.082" y="3.841" class="d">0.5</text></svg><svg x="3608"><use xlink:href="#a"/><use xlink:href="#b" x="44.996" y="2.146"/><use xlink:href="#1"/><use xlink:href="#10" y="2.171"/></svg><svg x="3690"><use xlink:href="#a"/><use xlink:href="#b" x="45.996" y="2.146"/><use xlink:href="#1"/><use xlink:href="#10" y="2.171"/></svg><svg x="3772"><use xlink:href="#a"/><use xlink:href="#b" x="46.996" y="2.146"/><use xlink:href="#1"/><text y="3.841" class="e">-&gt;</text><text x="3.006" y="3.841" class="d">argsearch</text><text x="13.026" y="3.841" class="d">grid</text><text x="18.036" y="3.841" class="d">3</text><text x="20.04" y="3.841" class="d">&quot;echo</text><text x="26.052" y="3.841" class="d">{a}</text><text x="30.06" y="3.841" class="d">{b};</text><text x="35.07" y="3.841" class="d">sleep</text><text x="41.082" y="3.841" class="d">0.5&quot;</text><text x="46.092" y="3.841" class="d">-</text></svg><svg x="3854"><use xlink:href="#a"/><use xlink:href="#b" x="47.996" y="2.146"/><use xlink:href="#1"/><text y="3.841" class="e">-&gt;</text><text x="3.006" y="3.841" class="d">argsearch</text><text x="13.026" y="3.841" class="d">grid</text><text x="18.036" y="3.841" class="d">3</text><text x="20.04" y="3.841" class="d">&quot;echo</text><text x="26.052" y="3.841" class="d">{a}</text><text x="30.06" y="3.841" class="d">{b};</text><text x="35.07" y="3.841" class="d">sleep</text><text x="41.082" y="3.841" class="d">0.5&quot;</text><text x="46.092" y="3.841" class="d">--</text></svg><svg x="3936"><use xlink:href="#a"/><use xlink:href="#b" x="48.996" y="2.146"/><use xlink:href="#1"/><use xlink:href="#11" y="2.171"/></svg><svg x="4018"><use xlink:href="#a"/><use xlink:href="#b" x="49.996" y="2.146"/><use xlink:href="#1"/><use xlink:href="#11" y="2.171"/></svg><svg x="4100"><use xlink:href="#a"/><use xlink:href="#b" x="50.996" y="2.146"/><use xlink:href="#1"/><use xlink:href="#12" y="2.171"/></svg><svg x="4182"><use xlink:href="#a"/><use xlink:href="#b" x="51.996" y="2.146"/><use xlink:href="#1"/><use xlink:href="#12" y="2.171"/></svg><svg x="4264"><use xlink:href="#a"/><use xlink:href="#b" x="52.996" y="2.146"/><use xlink:href="#1"/><text y="3.841" class="e">-&gt;</text><text x="3.006" y="3.841" class="d">argsearch</text><text x="13.026" y="3.841" class="d">grid</text><text x="18.036" y="3.841" class="d">3</text><text x="20.04" y="3.841" class="d">&quot;echo</text><text x="26.052" y="3.841" class="d">{a}</text><text x="30.06" y="3.841" class="d">{b};</text><text x="35.07" y="3.841" class="d">sleep</text><text x="41.082" y="3.841" class="d">0.5&quot;</text><text x="46.092" y="3.841" class="d">--a</text><text x="50.1" y="3.841" class="d">1</text><text x="52.104" y="3.841" class="d">1</text></svg><svg x="4346"><use xlink:href="#a"/><use xlink:href="#b" x="53.996" y="2.146"/><use xlink:href="#1"/><use xlink:href="#13" y="2.171"/></svg><svg x="4428"><use xlink:href="#a"/><use xlink:href="#b" x="54.996" y="2.146"/><use xlink:href="#1"/><use xlink:href="#13" y="2.171"/></svg><svg x="4510"><use xlink:href="#a"/><use xlink:href="#b" x="55.996" y="2.146"/><use xlink:href="#1"/><text y="3.841" class="e">-&gt;</text><text x="3.006" y="3.841" class="d">argsearch</text><text x="13.026" y="3.841" class="d">grid</text><text x="18.036" y="3.841" class="d">3</text><text x="20.04" y="3.841" class="d">&quot;echo</text><text x="26.052" y="3.841" class="d">{a}</text><text x="30.06" y="3.841" class="d">{b};</text><text x="35.07" y="3.841" class="d">sleep</text><text x="41.082" y="3.841" class="d">0.5&quot;</text><text x="46.092" y="3.841" class="d">--a</text><text x="50.1" y="3.841" class="d">1</text><text x="52.104" y="3.841" class="d">10</text><text x="55.11" y="3.841" class="d">-</text></svg><svg x="4592"><use xlink:href="#a"/><use xlink:href="#b" x="56.996" y="2.146"/><use xlink:href="#1"/><text y="3.841" class="e">-&gt;</text><text x="3.006" y="3.841" class="d">argsearch</text><text x="13.026" y="3.841" class="d">grid</text><text x="18.036" y="3.841" class="d">3</text><text x="20.04" y="3.841" class="d">&quot;echo</text><text x="26.052" y="3.841" class="d">{a}</text><text x="30.06" y="3.841" class="d">{b};</text><text x="35.07" y="3.841" class="d">sleep</text><text x="41.082" y="3.841" class="d">0.5&quot;</text><text x="46.092" y="3.841" class="d">--a</text><text x="50.1" y="3.841" class="d">1</text><text x="52.104" y="3.841" class="d">10</text><text x="55.11" y="3.841" class="d">--</text></svg><svg x="4674"><use xlink:href="#a"/><use xlink:href="#b" x="57.996" y="2.146"/><use xlink:href="#1"/><use xlink:href="#14" y="2.171"/></svg><svg x="4756"><use xlink:href="#a"/><use xlink:href="#b" x="58.996" y="2.146"/><use xlink:href="#1"/><use xlink:href="#14" y="2.171"/></svg><svg x="4838"><use xlink:href="#a"/><use xlink:href="#b" x="59.996" y="2.146"/><use xlink:href="#1"/><use xlink:href="#15" y="2.171"/></svg><svg x="4920"><use xlink:href="#a"/><use xlink:href="#b" x="60.996" y="2.146"/><use xlink:href="#1"/><use xlink:href="#15" y="2.171"/></svg><svg x="5002"><use xlink:href="#a"/><use xlink:href="#b" x="61.996" y="2.146"/><use xlink:href="#1"/><use xlink:href="#16" y="2.171"/></svg><svg x="5084"><use xlink:href="#a"/><use xlink:href="#b" x="62.996" y="2.146"/><use xlink:href="#1"/><use xlink:href="#16" y="2.171"/></svg><svg x="5166"><use xlink:href="#a"/><use xlink:href="#b" x="-.004" y="4.317"/><use xlink:href="#1"/><use xlink:href="#16" y="2.171"/></svg><svg x="5248"><use xlink:href="#a"/><use xlink:href="#b" x="81.996" y="4.317"/><use xlink:href="#1"/><use xlink:href="#16" y="2.171"/><use xlink:href="#17" y="4.342"/></svg><svg x="5330"><use xlink:href="#a"/><use xlink:href="#b" x="-.004" y="6.488"/><use xlink:href="#1"/><use xlink:href="#16" y="2.171"/><use xlink:href="#18" y="4.342"/></svg><svg x="5412"><use xlink:href="#a"/><use xlink:href="#b" x="81.996" y="6.488"/><use xlink:href="#1"/><use xlink:href="#16" y="2.171"/><use xlink:href="#18" y="4.342"/><use xlink:href="#17" y="6.513"/></svg><svg x="5494"><use xlink:href="#a"/><use xlink:href="#b" x="-.004" y="8.659"/><use xlink:href="#1"/><use xlink:href="#16" y="2.171"/><use xlink:href="#18" y="4.342"/><use xlink:href="#19" y="6.513"/></svg><svg x="5576"><use xlink:href="#a"/><use xlink:href="#b" x="81.996" y="8.659"/><use xlink:href="#1"/><use xlink:href="#16" y="2.171"/><use xlink:href="#18" y="4.342"/><use xlink:href="#19" y="6.513"/><use xlink:href="#17" y="8.684"/></svg><svg x="5658"><use xlink:href="#a"/><use xlink:href="#b" x="81.996" y="8.659"/><use xlink:href="#1"/><use xlink:href="#16" y="2.171"/><use xlink:href="#18" y="4.342"/><use xlink:href="#19" y="6.513"/><use xlink:href="#20" y="8.684"/></svg><svg x="5740"><use xlink:href="#a"/><use xlink:href="#b" x="-.004" y="10.83"/><use xlink:href="#1"/><use xlink:href="#16" y="2.171"/><use xlink:href="#18" y="4.342"/><use xlink:href="#19" y="6.513"/><use xlink:href="#21" y="8.684"/></svg><svg x="5822"><use xlink:href="#a"/><use xlink:href="#b" x="81.996" y="10.83"/><use xlink:href="#1"/><use xlink:href="#16" y="2.171"/><use xlink:href="#18" y="4.342"/><use xlink:href="#19" y="6.513"/><use xlink:href="#21" y="8.684"/><use xlink:href="#20" y="10.855"/></svg><svg x="5904"><use xlink:href="#a"/><use xlink:href="#b" x="-.004" y="10.83"/><use xlink:href="#1"/><use xlink:href="#16" y="2.171"/><use xlink:href="#18" y="4.342"/><use xlink:href="#19" y="6.513"/><use xlink:href="#21" y="8.684"/></svg><svg x="5986"><use xlink:href="#a"/><use xlink:href="#b" x="-.004" y="13.001"/><use xlink:href="#1"/><use xlink:href="#16" y="2.171"/><use xlink:href="#18" y="4.342"/><use xlink:href="#19" y="6.513"/><use xlink:href="#21" y="8.684"/><use xlink:href="#22" y="10.855"/></svg><svg x="6068"><use xlink:href="#a"/><use xlink:href="#b" x="81.996" y="13.001"/><use xlink:href="#1"/><use xlink:href="#16" y="2.171"/><use xlink:href="#18" y="4.342"/><use xlink:href="#19" y="6.513"/><use xlink:href="#21" y="8.684"/><use xlink:href="#22" y="10.855"/><use xlink:href="#20" y="13.026"/></svg><svg x="6150"><use xlink:href="#a"/><use xlink:href="#b" x="81.996" y="13.001"/><use xlink:href="#1"/><use xlink:href="#16" y="2.171"/><use xlink:href="#18" y="4.342"/><use xlink:href="#19" y="6.513"/><use xlink:href="#21" y="8.684"/><use xlink:href="#22" y="10.855"/><use xlink:href="#23" y="13.026"/></svg><svg x="6232"><use xlink:href="#a"/><use xlink:href="#b" x="-.004" y="15.172"/><use xlink:href="#1"/><use xlink:href="#16" y="2.171"/><use xlink:href="#18" y="4.342"/><use xlink:href="#19" y="6.513"/><use xlink:href="#21" y="8.684"/><use xlink:href="#22" y="10.855"/><use xlink:href="#24" y="13.026"/></svg><svg x="6314"><use xlink:href="#a"/><use xlink:href="#b" x="81.996" y="15.172"/><use xlink:href="#1"/><use xlink:href="#16" y="2.171"/><use xlink:href="#18" y="4.342"/><use xlink:href="#19" y="6.513"/><use xlink:href="#21" y="8.684"/><use xlink:href="#22" y="10.855"/><use xlink:href="#24" y="13.026"/><use xlink:href="#23" y="15.197"/></svg><svg x="6396"><use xlink:href="#a"/><use xlink:href="#b" x="-.004" y="15.172"/><use xlink:href="#1"/><use xlink:href="#16" y="2.171"/><use xlink:href="#18" y="4.342"/><use xlink:href="#19" y="6.513"/><use xlink:href="#21" y="8.684"/><use xlink:href="#22" y="10.855"/><use xlink:href="#24" y="13.026"/></svg><svg x="6478"><use xlink:href="#a"/><use xlink:href="#b" x="-.004" y="17.343"/><use xlink:href="#1"/><use xlink:href="#16" y="2.171"/><use xlink:href="#18" y="4.342"/><use xlink:href="#19" y="6.513"/><use xlink:href="#21" y="8.684"/><use xlink:href="#22" y="10.855"/><use xlink:href="#24" y="13.026"/><use xlink:href="#25" y="15.197"/></svg><svg x="6560"><use xlink:href="#a"/><use xlink:href="#b" x="81.996" y="17.343"/><use xlink:href="#1"/><use xlink:href="#16" y="2.171"/><use xlink:href="#18" y="4.342"/><use xlink:href="#19" y="6.513"/><use xlink:href="#21" y="8.684"/><use xlink:href="#22" y="10.855"/><use xlink:href="#24" y="13.026"/><use xlink:href="#25" y="15.197"/><use xlink:href="#23" y="17.368"/></svg><svg x="6642"><use xlink:href="#a"/><use xlink:href="#b" x="81.996" y="17.343"/><use xlink:href="#1"/><use xlink:href="#16" y="2.171"/><use xlink:href="#18" y="4.342"/><use xlink:href="#19" y="6.513"/><use xlink:href="#21" y="8.684"/><use xlink:href="#22" y="10.855"/><use xlink:href="#24" y="13.026"/><use xlink:href="#25" y="15.197"/><use xlink:href="#26" y="17.368"/></svg><svg x="6724"><use xlink:href="#a"/><use xlink:href="#b" x="-.004" y="19.514"/><use xlink:href="#1"/><use xlink:href="#16" y="2.171"/><use xlink:href="#18" y="4.342"/><use xlink:href="#19" y="6.513"/><use xlink:href="#21" y="8.684"/><use xlink:href="#22" y="10.855"/><use xlink:href="#24" y="13.026"/><use xlink:href="#25" y="15.197"/><use xlink:href="#27" y="17.368"/></svg><svg x="6806"><use xlink:href="#a"/><use xlink:href="#b" x="81.996" y="19.514"/><use xlink:href="#1"/><use xlink:href="#16" y="2.171"/><use xlink:href="#18" y="4.342"/><use xlink:href="#19" y="6.513"/><use xlink:href="#21" y="8.684"/><use xlink:href="#22" y="10.855"/><use xlink:href="#24" y="13.026"/><use xlink:href="#25" y="15.197"/><use xlink:href="#27" y="17.368"/><use xlink:href="#26" y="19.539"/></svg><svg x="6888"><use xlink:href="#a"/><use xlink:href="#b" x="81.996" y="19.514"/><use xlink:href="#1"/><use xlink:href="#16" y="2.171"/><use xlink:href="#18" y="4.342"/><use xlink:href="#19" y="6.513"/><use xlink:href="#21" y="8.684"/><use xlink:href="#22" y="10.855"/><use xlink:href="#24" y="13.026"/><use xlink:href="#25" y="15.197"/><use xlink:href="#27" y="17.368"/></svg><svg x="6970"><use xlink:href="#a"/><use xlink:href="#b" x="-.004" y="19.514"/><use xlink:href="#1"/><use xlink:href="#16" y="2.171"/><use xlink:href="#18" y="4.342"/><use xlink:href="#19" y="6.513"/><use xlink:href="#21" y="8.684"/><use xlink:href="#22" y="10.855"/><use xlink:href="#24" y="13.026"/><use xlink:href="#25" y="15.197"/><use xlink:href="#27" y="17.368"/></svg><svg x="7052"><use xlink:href="#a"/><use xlink:href="#b" x="2.996" y="19.514"/><use xlink:href="#1"/><use xlink:href="#16" y="2.171"/><use xlink:href="#18" y="4.342"/><use xlink:href="#19" y="6.513"/><use xlink:href="#21" y="8.684"/><use xlink:href="#22" y="10.855"/><use xlink:href="#24" y="13.026"/><use xlink:href="#25" y="15.197"/><use xlink:href="#27" y="17.368"/><use xlink:href="#28" y="19.539"/></svg><svg x="7134"><use xlink:href="#a"/><use xlink:href="#b" x="-.004" y="21.685"/><use xlink:href="#1"/><use xlink:href="#16" y="2.171"/><use xlink:href="#18" y="4.342"/><use xlink:href="#19" y="6.513"/><use xlink:href="#21" y="8.684"/><use xlink:href="#22" y="10.855"/><use xlink:href="#24" y="13.026"/><use xlink:href="#25" y="15.197"/><use xlink:href="#27" y="17.368"/><use xlink:href="#28" y="19.539"/></svg><svg x="7216"><use xlink:href="#a"/><use xlink:href="#b" x="81.996" y="21.685"/><use xlink:href="#1"/><use xlink:href="#16" y="2.171"/><use xlink:href="#18" y="4.342"/><use xlink:href="#19" y="6.513"/><use xlink:href="#21" y="8.684"/><use xlink:href="#22" y="10.855"/><use xlink:href="#24" y="13.026"/><use xlink:href="#25" y="15.197"/><use xlink:href="#27" y="17.368"/><use xlink:href="#28" y="19.539"/><use xlink:href="#26" y="21.71"/></svg><svg x="7298"><use xlink:href="#a"/><use xlink:href="#b" x="81.996" y="21.685"/><use xlink:href="#1"/><use xlink:href="#16" y="2.171"/><use xlink:href="#18" y="4.342"/><use xlink:href="#19" y="6.513"/><use xlink:href="#21" y="8.684"/><use xlink:href="#22" y="10.855"/><use xlink:href="#24" y="13.026"/><use xlink:href="#25" y="15.197"/><use xlink:href="#27" y="17.368"/><use xlink:href="#28" y="19.539"/><use xlink:href="#29" y="21.71"/></svg><svg x="7380"><use xlink:href="#a"/><use xlink:href="#b" x="-.004" y="23.856"/><use xlink:href="#1"/><use xlink:href="#16" y="2.171"/><use xlink:href="#18" y="4.342"/><use xlink:href="#19" y="6.513"/><use xlink:href="#21" y="8.684"/><use xlink:href="#22" y="10.855"/><use xlink:href="#24" y="13.026"/><use xlink:href="#25" y="15.197"/><use xlink:href="#27" y="17.368"/><use xlink:href="#28" y="19.539"/><use xlink:href="#30" y="21.71"/></svg><svg x="7462"><use xlink:href="#a"/><use xlink:href="#b" x="81.996" y="23.856"/><use xlink:href="#1"/><use xlink:href="#16" y="2.171"/><use xlink:href="#18" y="4.342"/><use xlink:href="#19" y="6.513"/><use xlink:href="#21" y="8.684"/><use xlink:href="#22" y="10.855"/><use xlink:href="#24" y="13.026"/><use xlink:href="#25" y="15.197"/><use xlink:href="#27" y="17.368"/><use xlink:href="#28" y="19.539"/><use xlink:href="#30" y="21.71"/><use xlink:href="#29" y="23.881"/></svg><svg x="7544"><use xlink:href="#a"/><use xlink:href="#b" x="-.004" y="26.027"/><use xlink:href="#1"/><use xlink:href="#16" y="2.171"/><use xlink:href="#18" y="4.342"/><use xlink:href="#19" y="6.513"/><use xlink:href="#21" y="8.684"/><use xlink:href="#22" y="10.855"/><use xlink:href="#24" y="13.026"/><use xlink:href="#25" y="15.197"/><use xlink:href="#27" y="17.368"/><use xlink:href="#28" y="19.539"/><use xlink:href="#30" y="21.71"/><use xlink:href="#31" y="23.881"/></svg><svg x="7626"><use xlink:href="#a"/><use xlink:href="#b" x="81.996" y="26.027"/><use xlink:href="#1"/><use xlink:href="#16" y="2.171"/><use xlink:href="#18" y="4.342"/><use xlink:href="#19" y="6.513"/><use xlink:href="#21" y="8.684"/><use xlink:href="#22" y="10.855"/><use xlink:href="#24" y="13.026"/><use xlink:href="#25" y="15.197"/><use xlink:href="#27" y="17.368"/><use xlink:href="#28" y="19.539"/><use xlink:href="#30" y="21.71"/><use xlink:href="#31" y="23.881"/><use xlink:href="#29" y="26.052"/></svg><svg x="7708"><use xlink:href="#a"/><use xlink:href="#b" x="81.996" y="26.027"/><use xlink:href="#1"/><use xlink:href="#16" y="2.171"/><use xlink:href="#18" y="4.342"/><use xlink:href="#19" y="6.513"/><use xlink:href="#21" y="8.684"/><use xlink:href="#22" y="10.855"/><use xlink:href="#24" y="13.026"/><use xlink:href="#25" y="15.197"/><use xlink:href="#27" y="17.368"/><use xlink:href="#28" y="19.539"/><use xlink:href="#30" y="21.71"/><use xlink:href="#31" y="23.881"/><use xlink:href="#32" y="26.052"/></svg><svg x="7790"><use xlink:href="#a"/><use xlink:href="#b" x="81.996" y="26.027"/><use xlink:href="#1"/><use xlink:href="#16" y="2.171"/><use xlink:href="#18" y="4.342"/><use xlink:href="#19" y="6.513"/><use xlink:href="#21" y="8.684"/><use xlink:href="#22" y="10.855"/><use xlink:href="#24" y="13.026"/><use xlink:href="#25" y="15.197"/><use xlink:href="#27" y="17.368"/><use xlink:href="#28" y="19.539"/><use xlink:href="#30" y="21.71"/><use xlink:href="#31" y="23.881"/></svg><svg x="7872"><use xlink:href="#a"/><use xlink:href="#b" x="-.004" y="26.027"/><use xlink:href="#1"/><use xlink:href="#16" y="2.171"/><use xlink:href="#18" y="4.342"/><use xlink:href="#19" y="6.513"/><use xlink:href="#21" y="8.684"/><use xlink:href="#22" y="10.855"/><use xlink:href="#24" y="13.026"/><use xlink:href="#25" y="15.197"/><use xlink:href="#27" y="17.368"/><use xlink:href="#28" y="19.539"/><use xlink:href="#30" y="21.71"/><use xlink:href="#31" y="23.881"/></svg><svg x="7954"><use xlink:href="#a"/><use xlink:href="#b" x="27.996" y="26.027"/><use xlink:href="#1"/><use xlink:href="#16" y="2.171"/><use xlink:href="#18" y="4.342"/><use xlink:href="#19" y="6.513"/><use xlink:href="#21" y="8.684"/><use xlink:href="#22" y="10.855"/><use xlink:href="#24" y="13.026"/><use xlink:href="#25" y="15.197"/><use xlink:href="#27" y="17.368"/><use xlink:href="#28" y="19.539"/><use xlink:href="#30" y="21.71"/><use xlink:href="#31" y="23.881"/><use xlink:href="#33" y="26.052"/></svg><svg x="8036"><use xlink:href="#a"/><use xlink:href="#b" x="81.996" y="28.198"/><use xlink:href="#1"/><use xlink:href="#16" y="2.171"/><use xlink:href="#18" y="4.342"/><use xlink:href="#19" y="6.513"/><use xlink:href="#21" y="8.684"/><use xlink:href="#22" y="10.855"/><use xlink:href="#24" y="13.026"/><use xlink:href="#25" y="15.197"/><use xlink:href="#27" y="17.368"/><use xlink:href="#28" y="19.539"/><use xlink:href="#30" y="21.71"/><use xlink:href="#31" y="23.881"/><use xlink:href="#33" y="26.052"/><use xlink:href="#32" y="28.223"/></svg><svg x="8118"><use xlink:href="#a"/><use xlink:href="#b" x="3.996" y="28.198"/><use xlink:href="#1"/><use xlink:href="#16" y="2.171"/><use xlink:href="#18" y="4.342"/><use xlink:href="#19" y="6.513"/><use xlink:href="#21" y="8.684"/><use xlink:href="#22" y="10.855"/><use xlink:href="#24" y="13.026"/><use xlink:href="#25" y="15.197"/><use xlink:href="#27" y="17.368"/><use xlink:href="#28" y="19.539"/><use xlink:href="#30" y="21.71"/><use xlink:href="#31" y="23.881"/><use xlink:href="#33" y="26.052"/><use xlink:href="#34" y="28.223"/></svg><svg x="8200"><use xlink:href="#a"/><use xlink:href="#b" x="-.004" y="30.369"/><use xlink:href="#1"/><use xlink:href="#16" y="2.171"/><use xlink:href="#18" y="4.342"/><use xlink:href="#19" y="6.513"/><use xlink:href="#21" y="8.684"/><use xlink:href="#22" y="10.855"/><use xlink:href="#24" y="13.026"/><use xlink:href="#25" y="15.197"/><use xlink:href="#27" y="17.368"/><use xlink:href="#28" y="19.539"/><use xlink:href="#30" y="21.71"/><use xlink:href="#31" y="23.881"/><use xlink:href="#33" y="26.052"/><use xlink:href="#34" y="28.223"/></svg><svg x="8282"><use xlink:href="#a"/><use xlink:href="#b" x="81.996" y="30.369"/><use xlink:href="#1"/><use xlink:href="#16" y="2.171"/><use xlink:href="#18" y="4.342"/><use xlink:href="#19" y="6.513"/><use xlink:href="#21" y="8.684"/><use xlink:href="#22" y="10.855"/><use xlink:href="#24" y="13.026"/><use xlink:href="#25" y="15.197"/><use xlink:href="#27" y="17.368"/><use xlink:href="#28" y="19.539"/><use xlink:href="#30" y="21.71"/><use xlink:href="#31" y="23.881"/><use xlink:href="#33" y="26.052"/><use xlink:href="#34" y="28.223"/><use xlink:href="#32" y="30.394"/></svg><svg x="8364"><use xlink:href="#a"/><use xlink:href="#b" x="81.996" y="30.369"/><use xlink:href="#1"/><use xlink:href="#16" y="2.171"/><use xlink:href="#18" y="4.342"/><use xlink:href="#19" y="6.513"/><use xlink:href="#21" y="8.684"/><use xlink:href="#22" y="10.855"/><use xlink:href="#24" y="13.026"/><use xlink:href="#25" y="15.197"/><use xlink:href="#27" y="17.368"/><use xlink:href="#28" y="19.539"/><use xlink:href="#30" y="21.71"/><use xlink:href="#31" y="23.881"/><use xlink:href="#33" y="26.052"/><use xlink:href="#34" y="28.223"/><text y="32.064" class="d">100%|███████████████████████████████████████████████|</text><text x="54.108" y="32.064" class="d">6/6</text><text x="58.116" y="32.064" class="d">[00:03&lt;00:00,</text><text x="73.146" y="32.064" class="d">1.97it/s]</text></svg><svg x="8446"><use xlink:href="#a"/><use xlink:href="#b" x="-.004" y="32.54"/><use xlink:href="#1"/><use xlink:href="#16" y="2.171"/><use xlink:href="#18" y="4.342"/><use xlink:href="#19" y="6.513"/><use xlink:href="#21" y="8.684"/><use xlink:href="#22" y="10.855"/><use xlink:href="#24" y="13.026"/><use xlink:href="#25" y="15.197"/><use xlink:href="#27" y="17.368"/><use xlink:href="#28" y="19.539"/><use xlink:href="#30" y="21.71"/><use xlink:href="#31" y="23.881"/><use xlink:href="#33" y="26.052"/><use xlink:href="#34" y="28.223"/><use xlink:href="#35" y="30.394"/></svg><svg x="8528"><use xlink:href="#a"/><use xlink:href="#b" x="-.004" y="32.54"/><use xlink:href="#1"/><use xlink:href="#16" y="2.171"/><use xlink:href="#18" y="4.342"/><use xlink:href="#19" y="6.513"/><use xlink:href="#21" y="8.684"/><use xlink:href="#22" y="10.855"/><use xlink:href="#24" y="13.026"/><use xlink:href="#25" y="15.197"/><use xlink:href="#27" y="17.368"/><use xlink:href="#28" y="19.539"/><use xlink:href="#30" y="21.71"/><use xlink:href="#31" y="23.881"/><use xlink:href="#33" y="26.052"/><use xlink:href="#34" y="28.223"/><use xlink:href="#35" y="30.394"/></svg><svg x="8610"><use xlink:href="#a"/><use xlink:href="#b" x="2.996" y="34.711"/><use xlink:href="#1"/><use xlink:href="#16" y="2.171"/><use xlink:href="#18" y="4.342"/><use xlink:href="#19" y="6.513"/><use xlink:href="#21" y="8.684"/><use xlink:href="#22" y="10.855"/><use xlink:href="#24" y="13.026"/><use xlink:href="#25" y="15.197"/><use xlink:href="#27" y="17.368"/><use xlink:href="#28" y="19.539"/><use xlink:href="#30" y="21.71"/><use xlink:href="#31" y="23.881"/><use xlink:href="#33" y="26.052"/><use xlink:href="#34" y="28.223"/><use xlink:href="#35" y="30.394"/><use xlink:href="#36" y="32.565"/><use xlink:href="#2" y="34.736"/></svg><svg x="8692"><use xlink:href="#a"/><use xlink:href="#b" x="-.004" y="36.882"/><use xlink:href="#1"/><use xlink:href="#16" y="2.171"/><use xlink:href="#18" y="4.342"/><use xlink:href="#19" y="6.513"/><use xlink:href="#21" y="8.684"/><use xlink:href="#22" y="10.855"/><use xlink:href="#24" y="13.026"/><use xlink:href="#25" y="15.197"/><use xlink:href="#27" y="17.368"/><use xlink:href="#28" y="19.539"/><use xlink:href="#30" y="21.71"/><use xlink:href="#31" y="23.881"/><use xlink:href="#33" y="26.052"/><use xlink:href="#34" y="28.223"/><use xlink:href="#35" y="30.394"/><use xlink:href="#36" y="32.565"/><text y="36.406" class="e">-&gt;</text><text x="3.006" y="36.406" class="d">exit</text></svg></svg></g></g></svg></svg>