<svg xmlns="http://www.w3.org/2000/svg" xmlns:xlink="http://www.w3.org/1999/xlink" width="820" height="477.62"><rect width="820" height="477.62" rx="0" ry="0" class="a"/><svg height="477.62" viewBox="0 0 82 47.762" width="820" xmlns="http://www.w3.org/2000/svg" xmlns:xlink="http://www.w3.org/1999/xlink"><style>@keyframes l{0%{transform:translateX(0)}1.19%{transform:translateX(-82px)}1.46%{transform:translateX(-164px)}6%{transform:translateX(-246px)}7.1%{transform:translateX(-328px)}7.91%{transform:translateX(-410px)}10.18%{transform:translateX(-492px)}10.92%{transform:translateX(-574px)}11.57%{transform:translateX(-656px)}12.22%{transform:translateX(-738px)}12.78%{transform:translateX(-820px)}13.12%{transform:translateX(-902px)}13.46%{transform:translateX(-984px)}15.19%{transform:translateX(-1066px)}15.75%{transform:translateX(-1148px)}17.86%{transform:translateX(-1230px)}18.72%{transform:translateX(-1312px)}19.18%{transform:translateX(-1394px)}19.62%{transform:translateX(-1476px)}20.54%{transform:translateX(-1558px)}20.9%{transform:translateX(-1640px)}22.48%{transform:translateX(-1722px)}26.14%{transform:translateX(-1804px)}27.18%{transform:translateX(-1886px)}28.09%{transform:translateX(-1968px)}29.03%{transform:translateX(-2050px)}29.54%{transform:translateX(-2132px)}31.18%{transform:translateX(-2214px)}31.89%{transform:translateX(-2296px)}32.25%{transform:translateX(-2378px)}32.58%{transform:translateX(-2460px)}32.99%{transform:translateX(-2542px)}33.18%{transform:translateX(-2624px)}33.4%{transform:translateX(-2706px)}36.96%{transform:translateX(-2788px)}37.3%{transform:translateX(-2870px)}40.18%{transform:translateX(-2952px)}42.73%{transform:translateX(-3034px)}43.47%{transform:translateX(-3116px)}43.68%{transform:translateX(-3198px)}44.36%{transform:translateX(-3280px)}44.77%{transform:translateX(-3362px)}46.29%{transform:translateX(-3444px)}47.94%{transform:translateX(-3526px)}49.23%{transform:translateX(-3608px)}53.18%{transform:translateX(-3690px)}53.47%{transform:translateX(-3772px)}54.47%{transform:translateX(-3854px)}54.82%{transform:translateX(-3936px)}55.27%{transform:translateX(-4018px)}55.82%{transform:translateX(-4100px)}55.91%{transform:translateX(-4182px)}56.08%{transform:translateX(-4264px)}56.98%{transform:translateX(-4346px)}57.85%{transform:translateX(-4428px)}58.12%{transform:translateX(-4510px)}63.03%{transform:translateX(-4592px)}65.72%{transform:translateX(-4674px)}66.4%{transform:translateX(-4756px)}67.03%{transform:translateX(-4838px)}67.44%{transform:translateX(-4920px)}67.85%{transform:translateX(-5002px)}69.01%{transform:translateX(-5084px)}69.88%{transform:translateX(-5166px)}70.49%{transform:translateX(-5248px)}70.77%{transform:translateX(-5330px)}73.61%{transform:translateX(-5412px)}73.95%{transform:translateX(-5494px)}74.58%{transform:translateX(-5576px)}74.86%{transform:translateX(-5658px)}76.6%{transform:translateX(-5740px)}77.09%{transform:translateX(-5822px)}78.67%{transform:translateX(-5904px)}79.99%{transform:translateX(-5986px)}82.88%{transform:translateX(-6068px)}83.75%{transform:translateX(-6232px)}86.23%{transform:translateX(-6396px)}88.69%{transform:translateX(-6560px)}91.17%{transform:translateX(-6724px)}91.18%{transform:translateX(-6888px)}91.28%{transform:translateX(-6970px)}91.56%{transform:translateX(-7052px)}to{transform:translateX(-7134px)}}.a{fill:#282d35}.c,.d,.e,.f,.g,.h{fill:#a8cc8c;white-space:pre}.d,.e,.f,.g,.h{fill:#b9c0cb}.e,.f,.g,.h{fill:#e88388}.f,.g,.h{fill:#71bef2}.g,.h{fill:#b9c0cb;font-weight:700}.h{fill:#71bef2}</style><g font-family="Monaco,Consolas,Menlo,'Bitstream Vera Sans Mono','Powerline Symbols',monospace" font-size="1.67"><defs><symbol id="1"><text y="1.67" class="c">01:28:18</text><text x="9.018" y="1.67" class="d">~/dev/argsearch/images/</text><text x="33.066" y="1.67" class="c">master</text><text x="40.08" y="1.67" class="e">*</text></symbol><symbol id="2"><text y="1.67" class="f">-&gt;</text></symbol><symbol id="3"><text y="1.67" class="f">-&gt;</text><text x="3.006" y="1.67" class="d">argsearch</text></symbol><symbol id="4"><text y="1.67" class="f">-&gt;</text><text x="3.006" y="1.67" class="d">argsearch</text><text x="13.026" y="1.67" class="d">--output-json</text></symbol><symbol id="5"><text y="1.67" class="f">-&gt;</text><text x="3.006" y="1.67" class="d">argsearch</text><text x="13.026" y="1.67" class="d">--output-json</text><text x="27.054" y="1.67" class="d">random</text></symbol><symbol id="6"><text y="1.67" class="f">-&gt;</text><text x="3.006" y="1.67" class="d">argsearch</text><text x="13.026" y="1.67" class="d">--output-json</text><text x="27.054" y="1.67" class="d">random</text><text x="34.068" y="1.67" class="d">3</text></symbol><symbol id="7"><text y="1.67" class="f">-&gt;</text><text x="3.006" y="1.67" class="d">argsearch</text><text x="13.026" y="1.67" class="d">--output-json</text><text x="27.054" y="1.67" class="d">random</text><text x="34.068" y="1.67" class="d">3</text><text x="36.072" y="1.67" class="d">&quot;echo</text></symbol><symbol id="8"><text y="1.67" class="f">-&gt;</text><text x="3.006" y="1.67" class="d">argsearch</text><text x="13.026" y="1.67" class="d">--output-json</text><text x="27.054" y="1.67" class="d">random</text><text x="34.068" y="1.67" class="d">3</text><text x="36.072" y="1.67" class="d">&quot;echo</text><text x="42.084" y="1.67" class="d">{a};</text></symbol><symbol id="9"><text y="1.67" class="f">-&gt;</text><text x="3.006" y="1.67" class="d">argsearch</text><text x="13.026" y="1.67" class="d">--output-json</text><text x="27.054" y="1.67" class="d">random</text><text x="34.068" y="1.67" class="d">3</text><text x="36.072" y="1.67" class="d">&quot;echo</text><text x="42.084" y="1.67" class="d">{a};</text><text x="47.094" y="1.67" class="d">sleep</text></symbol><symbol id="10"><text y="1.67" class="f">-&gt;</text><text x="3.006" y="1.67" class="d">argsearch</text><text x="13.026" y="1.67" class="d">--output-json</text><text x="27.054" y="1.67" class="d">random</text><text x="34.068" y="1.67" class="d">3</text><text x="36.072" y="1.67" class="d">&quot;echo</text><text x="42.084" y="1.67" class="d">{a};</text><text x="47.094" y="1.67" class="d">sleep</text><text x="53.106" y="1.67" class="d">0.5&quot;</text></symbol><symbol id="11"><text y="1.67" class="f">-&gt;</text><text x="3.006" y="1.67" class="d">argsearch</text><text x="13.026" y="1.67" class="d">--output-json</text><text x="27.054" y="1.67" class="d">random</text><text x="34.068" y="1.67" class="d">3</text><text x="36.072" y="1.67" class="d">&quot;echo</text><text x="42.084" y="1.67" class="d">{a};</text><text x="47.094" y="1.67" class="d">sleep</text><text x="53.106" y="1.67" class="d">0.5&quot;</text><text x="58.116" y="1.67" class="d">--a</text></symbol><symbol id="12"><text y="1.67" class="f">-&gt;</text><text x="3.006" y="1.67" class="d">argsearch</text><text x="13.026" y="1.67" class="d">--output-json</text><text x="27.054" y="1.67" class="d">random</text><text x="34.068" y="1.67" class="d">3</text><text x="36.072" y="1.67" class="d">&quot;echo</text><text x="42.084" y="1.67" class="d">{a};</text><text x="47.094" y="1.67" class="d">sleep</text><text x="53.106" y="1.67" class="d">0.5&quot;</text><text x="58.116" y="1.67" class="d">--a</text><text x="62.124" y="1.67" class="d">0.0</text></symbol><symbol id="13"><text y="1.67" class="f">-&gt;</text><text x="3.006" y="1.67" class="d">argsearch</text><text x="13.026" y="1.67" class="d">--output-json</text><text x="27.054" y="1.67" class="d">random</text><text x="34.068" y="1.67" class="d">3</text><text x="36.072" y="1.67" class="d">&quot;echo</text><text x="42.084" y="1.67" class="d">{a};</text><text x="47.094" y="1.67" class="d">sleep</text><text x="53.106" y="1.67" class="d">0.5&quot;</text><text x="58.116" y="1.67" class="d">--a</text><text x="62.124" y="1.67" class="d">0.0</text><text x="66.132" y="1.67" class="d">1.0</text></symbol><symbol id="14"><text y="1.67" class="f">-&gt;</text><text x="3.006" y="1.67" class="d">argsearch</text><text x="13.026" y="1.67" class="d">--output-json</text><text x="27.054" y="1.67" class="d">random</text><text x="34.068" y="1.67" class="d">3</text><text x="36.072" y="1.67" class="d">&quot;echo</text><text x="42.084" y="1.67" class="d">{a};</text><text x="47.094" y="1.67" class="d">sleep</text><text x="53.106" y="1.67" class="d">0.5&quot;</text><text x="58.116" y="1.67" class="d">--a</text><text x="62.124" y="1.67" class="d">0.0</text><text x="66.132" y="1.67" class="d">1.0</text><text x="70.14" y="1.67" class="d">|</text></symbol><symbol id="15"><text y="1.67" class="f">-&gt;</text><text x="3.006" y="1.67" class="d">argsearch</text><text x="13.026" y="1.67" class="d">--output-json</text><text x="27.054" y="1.67" class="d">random</text><text x="34.068" y="1.67" class="d">3</text><text x="36.072" y="1.67" class="d">&quot;echo</text><text x="42.084" y="1.67" class="d">{a};</text><text x="47.094" y="1.67" class="d">sleep</text><text x="53.106" y="1.67" class="d">0.5&quot;</text><text x="58.116" y="1.67" class="d">--a</text><text x="62.124" y="1.67" class="d">0.0</text><text x="66.132" y="1.67" class="d">1.0</text><text x="70.14" y="1.67" class="d">|</text><text x="72.144" y="1.67" class="d">jq</text></symbol><symbol id="16"><text y="1.67" class="d">echo</text><text x="5.01" y="1.67" class="d">0.2032817352227032;</text><text x="25.05" y="1.67" class="d">sleep</text><text x="31.062" y="1.67" class="d">0.5:</text><text x="36.072" y="1.67" class="d">100%|███████████|</text><text x="54.108" y="1.67" class="d">3/3</text><text x="58.116" y="1.67" class="d">[00:01&lt;00:00,</text><text x="73.146" y="1.67" class="d">1.97it/s]</text></symbol><symbol id="17"><text x="2.004" y="1.67" class="g">{</text></symbol><symbol id="18"><text x="4.008" y="1.67" class="h">&quot;step&quot;</text><text x="10.02" y="1.67" class="g">:</text><text x="12.024" y="1.67" class="d">0</text><text x="13.026" y="1.67" class="g">,</text></symbol><symbol id="19"><text x="4.008" y="1.67" class="h">&quot;command&quot;</text><text x="13.026" y="1.67" class="g">:</text><text x="15.03" y="1.67" class="c">&quot;echo</text><text x="21.042" y="1.67" class="c">0.27173721798983497;</text><text x="42.084" y="1.67" class="c">sleep</text><text x="48.096" y="1.67" class="c">0.5&quot;</text><text x="52.104" y="1.67" class="g">,</text></symbol><symbol id="20"><text x="4.008" y="1.67" class="h">&quot;stdout&quot;</text><text x="12.024" y="1.67" class="g">:</text><text x="14.028" y="1.67" class="c">&quot;0.27173721798983497\n&quot;</text><text x="37.074" y="1.67" class="g">,</text></symbol><symbol id="21"><text x="4.008" y="1.67" class="h">&quot;stderr&quot;</text><text x="12.024" y="1.67" class="g">:</text><text x="14.028" y="1.67" class="c">&quot;&quot;</text><text x="16.032" y="1.67" class="g">,</text></symbol><symbol id="22"><text x="4.008" y="1.67" class="h">&quot;returncode&quot;</text><text x="16.032" y="1.67" class="g">:</text><text x="18.036" y="1.67" class="d">0</text></symbol><symbol id="23"><text x="2.004" y="1.67" class="g">},</text></symbol><symbol id="24"><text x="4.008" y="1.67" class="h">&quot;step&quot;</text><text x="10.02" y="1.67" class="g">:</text><text x="12.024" y="1.67" class="d">1</text><text x="13.026" y="1.67" class="g">,</text></symbol><symbol id="25"><text x="4.008" y="1.67" class="h">&quot;command&quot;</text><text x="13.026" y="1.67" class="g">:</text><text x="15.03" y="1.67" class="c">&quot;echo</text><text x="21.042" y="1.67" class="c">0.6603138498819711;</text><text x="41.082" y="1.67" class="c">sleep</text><text x="47.094" y="1.67" class="c">0.5&quot;</text><text x="51.102" y="1.67" class="g">,</text></symbol><symbol id="26"><text x="4.008" y="1.67" class="h">&quot;stdout&quot;</text><text x="12.024" y="1.67" class="g">:</text><text x="14.028" y="1.67" class="c">&quot;0.6603138498819711\n&quot;</text><text x="36.072" y="1.67" class="g">,</text></symbol><symbol id="27"><text x="4.008" y="1.67" class="h">&quot;step&quot;</text><text x="10.02" y="1.67" class="g">:</text><text x="12.024" y="1.67" class="d">2</text><text x="13.026" y="1.67" class="g">,</text></symbol><symbol id="28"><text x="4.008" y="1.67" class="h">&quot;command&quot;</text><text x="13.026" y="1.67" class="g">:</text><text x="15.03" y="1.67" class="c">&quot;echo</text><text x="21.042" y="1.67" class="c">0.2032817352227032;</text><text x="41.082" y="1.67" class="c">sleep</text><text x="47.094" y="1.67" class="c">0.5&quot;</text><text x="51.102" y="1.67" class="g">,</text></symbol><symbol id="29"><text x="4.008" y="1.67" class="h">&quot;stdout&quot;</text><text x="12.024" y="1.67" class="g">:</text><text x="14.028" y="1.67" class="c">&quot;0.2032817352227032\n&quot;</text><text x="36.072" y="1.67" class="g">,</text></symbol><symbol id="30"><text x="2.004" y="1.67" class="g">}</text></symbol><symbol id="31"><text y="1.67" class="g">]</text></symbol><symbol id="32"><text y="1.67" class="c">01:28:37</text><text x="9.018" y="1.67" class="d">~/dev/argsearch/images/</text><text x="33.066" y="1.67" class="c">master</text><text x="40.08" y="1.67" class="e">*</text><text x="42.084" y="1.67" style="white-space:pre" fill="#dbab79">2s</text></symbol><symbol id="a"><path fill="transparent" d="M0 0h82v22H0z"/></symbol><symbol id="b"><path fill="#6f7683" d="M0 0h1.102v2.171H0z"/></symbol></defs><path class="a" d="M0 0h82v47.762H0z"/><g style="animation-duration:20.554753s;animation-iteration-count:infinite;animation-name:l;animation-timing-function:steps(1,end)"><svg width="7216"><svg><use xlink:href="#a"/><use xlink:href="#b" x="-.004"/></svg><svg x="82"><use xlink:href="#a"/><use xlink:href="#b" x="-.004"/></svg><svg x="164"><use xlink:href="#a"/><use xlink:href="#b" x="2.996" y="2.146"/><use xlink:href="#1"/><use xlink:href="#2" y="2.171"/></svg><svg x="246"><use xlink:href="#a"/><use xlink:href="#b" x="3.996" y="2.146"/><use xlink:href="#1"/><text y="3.841" class="f">-&gt;</text><text x="3.006" y="3.841" class="d">a</text></svg><svg x="328"><use xlink:href="#a"/><use xlink:href="#b" x="4.996" y="2.146"/><use xlink:href="#1"/><text y="3.841" class="f">-&gt;</text><text x="3.006" y="3.841" class="d">ar</text></svg><svg x="410"><use xlink:href="#a"/><use xlink:href="#b" x="5.996" y="2.146"/><use xlink:href="#1"/><text y="3.841" class="f">-&gt;</text><text x="3.006" y="3.841" class="d">arg</text></svg><svg x="492"><use xlink:href="#a"/><use xlink:href="#b" x="6.996" y="2.146"/><use xlink:href="#1"/><text y="3.841" class="f">-&gt;</text><text x="3.006" y="3.841" class="d">args</text></svg><svg x="574"><use xlink:href="#a"/><use xlink:href="#b" x="7.996" y="2.146"/><use xlink:href="#1"/><text y="3.841" class="f">-&gt;</text><text x="3.006" y="3.841" class="d">argse</text></svg><svg x="656"><use xlink:href="#a"/><use xlink:href="#b" x="8.996" y="2.146"/><use xlink:href="#1"/><text y="3.841" class="f">-&gt;</text><text x="3.006" y="3.841" class="d">argsea</text></svg><svg x="738"><use xlink:href="#a"/><use xlink:href="#b" x="9.996" y="2.146"/><use xlink:href="#1"/><text y="3.841" class="f">-&gt;</text><text x="3.006" y="3.841" class="d">argsear</text></svg><svg x="820"><use xlink:href="#a"/><use xlink:href="#b" x="10.996" y="2.146"/><use xlink:href="#1"/><text y="3.841" class="f">-&gt;</text><text x="3.006" y="3.841" class="d">argsearc</text></svg><svg x="902"><use xlink:href="#a"/><use xlink:href="#b" x="11.996" y="2.146"/><use xlink:href="#1"/><use xlink:href="#3" y="2.171"/></svg><svg x="984"><use xlink:href="#a"/><use xlink:href="#b" x="12.996" y="2.146"/><use xlink:href="#1"/><use xlink:href="#3" y="2.171"/></svg><svg x="1066"><use xlink:href="#a"/><use xlink:href="#b" x="13.996" y="2.146"/><use xlink:href="#1"/><text y="3.841" class="f">-&gt;</text><text x="3.006" y="3.841" class="d">argsearch</text><text x="13.026" y="3.841" class="d">-</text></svg><svg x="1148"><use xlink:href="#a"/><use xlink:href="#b" x="14.996" y="2.146"/><use xlink:href="#1"/><text y="3.841" class="f">-&gt;</text><text x="3.006" y="3.841" class="d">argsearch</text><text x="13.026" y="3.841" class="d">--</text></svg><svg x="1230"><use xlink:href="#a"/><use xlink:href="#b" x="15.996" y="2.146"/><use xlink:href="#1"/><text y="3.841" class="f">-&gt;</text><text x="3.006" y="3.841" class="d">argsearch</text><text x="13.026" y="3.841" class="d">--o</text></svg><svg x="1312"><use xlink:href="#a"/><use xlink:href="#b" x="16.996" y="2.146"/><use xlink:href="#1"/><text y="3.841" class="f">-&gt;</text><text x="3.006" y="3.841" class="d">argsearch</text><text x="13.026" y="3.841" class="d">--ou</text></svg><svg x="1394"><use xlink:href="#a"/><use xlink:href="#b" x="17.996" y="2.146"/><use xlink:href="#1"/><text y="3.841" class="f">-&gt;</text><text x="3.006" y="3.841" class="d">argsearch</text><text x="13.026" y="3.841" class="d">--out</text></svg><svg x="1476"><use xlink:href="#a"/><use xlink:href="#b" x="18.996" y="2.146"/><use xlink:href="#1"/><text y="3.841" class="f">-&gt;</text><text x="3.006" y="3.841" class="d">argsearch</text><text x="13.026" y="3.841" class="d">--outp</text></svg><svg x="1558"><use xlink:href="#a"/><use xlink:href="#b" x="19.996" y="2.146"/><use xlink:href="#1"/><text y="3.841" class="f">-&gt;</text><text x="3.006" y="3.841" class="d">argsearch</text><text x="13.026" y="3.841" class="d">--outpu</text></svg><svg x="1640"><use xlink:href="#a"/><use xlink:href="#b" x="20.996" y="2.146"/><use xlink:href="#1"/><text y="3.841" class="f">-&gt;</text><text x="3.006" y="3.841" class="d">argsearch</text><text x="13.026" y="3.841" class="d">--output</text></svg><svg x="1722"><use xlink:href="#a"/><use xlink:href="#b" x="21.996" y="2.146"/><use xlink:href="#1"/><text y="3.841" class="f">-&gt;</text><text x="3.006" y="3.841" class="d">argsearch</text><text x="13.026" y="3.841" class="d">--output-</text></svg><svg x="1804"><use xlink:href="#a"/><use xlink:href="#b" x="22.996" y="2.146"/><use xlink:href="#1"/><text y="3.841" class="f">-&gt;</text><text x="3.006" y="3.841" class="d">argsearch</text><text x="13.026" y="3.841" class="d">--output-j</text></svg><svg x="1886"><use xlink:href="#a"/><use xlink:href="#b" x="23.996" y="2.146"/><use xlink:href="#1"/><text y="3.841" class="f">-&gt;</text><text x="3.006" y="3.841" class="d">argsearch</text><text x="13.026" y="3.841" class="d">--output-js</text></svg><svg x="1968"><use xlink:href="#a"/><use xlink:href="#b" x="24.996" y="2.146"/><use xlink:href="#1"/><text y="3.841" class="f">-&gt;</text><text x="3.006" y="3.841" class="d">argsearch</text><text x="13.026" y="3.841" class="d">--output-jso</text></svg><svg x="2050"><use xlink:href="#a"/><use xlink:href="#b" x="25.996" y="2.146"/><use xlink:href="#1"/><use xlink:href="#4" y="2.171"/></svg><svg x="2132"><use xlink:href="#a"/><use xlink:href="#b" x="26.996" y="2.146"/><use xlink:href="#1"/><use xlink:href="#4" y="2.171"/></svg><svg x="2214"><use xlink:href="#a"/><use xlink:href="#b" x="27.996" y="2.146"/><use xlink:href="#1"/><text y="3.841" class="f">-&gt;</text><text x="3.006" y="3.841" class="d">argsearch</text><text x="13.026" y="3.841" class="d">--output-json</text><text x="27.054" y="3.841" class="d">r</text></svg><svg x="2296"><use xlink:href="#a"/><use xlink:href="#b" x="28.996" y="2.146"/><use xlink:href="#1"/><text y="3.841" class="f">-&gt;</text><text x="3.006" y="3.841" class="d">argsearch</text><text x="13.026" y="3.841" class="d">--output-json</text><text x="27.054" y="3.841" class="d">ra</text></svg><svg x="2378"><use xlink:href="#a"/><use xlink:href="#b" x="29.996" y="2.146"/><use xlink:href="#1"/><text y="3.841" class="f">-&gt;</text><text x="3.006" y="3.841" class="d">argsearch</text><text x="13.026" y="3.841" class="d">--output-json</text><text x="27.054" y="3.841" class="d">ran</text></svg><svg x="2460"><use xlink:href="#a"/><use xlink:href="#b" x="30.996" y="2.146"/><use xlink:href="#1"/><text y="3.841" class="f">-&gt;</text><text x="3.006" y="3.841" class="d">argsearch</text><text x="13.026" y="3.841" class="d">--output-json</text><text x="27.054" y="3.841" class="d">rand</text></svg><svg x="2542"><use xlink:href="#a"/><use xlink:href="#b" x="31.996" y="2.146"/><use xlink:href="#1"/><text y="3.841" class="f">-&gt;</text><text x="3.006" y="3.841" class="d">argsearch</text><text x="13.026" y="3.841" class="d">--output-json</text><text x="27.054" y="3.841" class="d">rando</text></svg><svg x="2624"><use xlink:href="#a"/><use xlink:href="#b" x="32.996" y="2.146"/><use xlink:href="#1"/><use xlink:href="#5" y="2.171"/></svg><svg x="2706"><use xlink:href="#a"/><use xlink:href="#b" x="33.996" y="2.146"/><use xlink:href="#1"/><use xlink:href="#5" y="2.171"/></svg><svg x="2788"><use xlink:href="#a"/><use xlink:href="#b" x="34.996" y="2.146"/><use xlink:href="#1"/><use xlink:href="#6" y="2.171"/></svg><svg x="2870"><use xlink:href="#a"/><use xlink:href="#b" x="35.996" y="2.146"/><use xlink:href="#1"/><use xlink:href="#6" y="2.171"/></svg><svg x="2952"><use xlink:href="#a"/><use xlink:href="#b" x="36.996" y="2.146"/><use xlink:href="#1"/><text y="3.841" class="f">-&gt;</text><text x="3.006" y="3.841" class="d">argsearch</text><text x="13.026" y="3.841" class="d">--output-json</text><text x="27.054" y="3.841" class="d">random</text><text x="34.068" y="3.841" class="d">3</text><text x="36.072" y="3.841" class="d">&quot;</text></svg><svg x="3034"><use xlink:href="#a"/><use xlink:href="#b" x="37.996" y="2.146"/><use xlink:href="#1"/><text y="3.841" class="f">-&gt;</text><text x="3.006" y="3.841" class="d">argsearch</text><text x="13.026" y="3.841" class="d">--output-json</text><text x="27.054" y="3.841" class="d">random</text><text x="34.068" y="3.841" class="d">3</text><text x="36.072" y="3.841" class="d">&quot;e</text></svg><svg x="3116"><use xlink:href="#a"/><use xlink:href="#b" x="38.996" y="2.146"/><use xlink:href="#1"/><text y="3.841" class="f">-&gt;</text><text x="3.006" y="3.841" class="d">argsearch</text><text x="13.026" y="3.841" class="d">--output-json</text><text x="27.054" y="3.841" class="d">random</text><text x="34.068" y="3.841" class="d">3</text><text x="36.072" y="3.841" class="d">&quot;ec</text></svg><svg x="3198"><use xlink:href="#a"/><use xlink:href="#b" x="39.996" y="2.146"/><use xlink:href="#1"/><text y="3.841" class="f">-&gt;</text><text x="3.006" y="3.841" class="d">argsearch</text><text x="13.026" y="3.841" class="d">--output-json</text><text x="27.054" y="3.841" class="d">random</text><text x="34.068" y="3.841" class="d">3</text><text x="36.072" y="3.841" class="d">&quot;ech</text></svg><svg x="3280"><use xlink:href="#a"/><use xlink:href="#b" x="40.996" y="2.146"/><use xlink:href="#1"/><use xlink:href="#7" y="2.171"/></svg><svg x="3362"><use xlink:href="#a"/><use xlink:href="#b" x="41.996" y="2.146"/><use xlink:href="#1"/><use xlink:href="#7" y="2.171"/></svg><svg x="3444"><use xlink:href="#a"/><use xlink:href="#b" x="42.996" y="2.146"/><use xlink:href="#1"/><text y="3.841" class="f">-&gt;</text><text x="3.006" y="3.841" class="d">argsearch</text><text x="13.026" y="3.841" class="d">--output-json</text><text x="27.054" y="3.841" class="d">random</text><text x="34.068" y="3.841" class="d">3</text><text x="36.072" y="3.841" class="d">&quot;echo</text><text x="42.084" y="3.841" class="d">{</text></svg><svg x="3526"><use xlink:href="#a"/><use xlink:href="#b" x="43.996" y="2.146"/><use xlink:href="#1"/><text y="3.841" class="f">-&gt;</text><text x="3.006" y="3.841" class="d">argsearch</text><text x="13.026" y="3.841" class="d">--output-json</text><text x="27.054" y="3.841" class="d">random</text><text x="34.068" y="3.841" class="d">3</text><text x="36.072" y="3.841" class="d">&quot;echo</text><text x="42.084" y="3.841" class="d">{a</text></svg><svg x="3608"><use xlink:href="#a"/><use xlink:href="#b" x="44.996" y="2.146"/><use xlink:href="#1"/><text y="3.841" class="f">-&gt;</text><text x="3.006" y="3.841" class="d">argsearch</text><text x="13.026" y="3.841" class="d">--output-json</text><text x="27.054" y="3.841" class="d">random</text><text x="34.068" y="3.841" class="d">3</text><text x="36.072" y="3.841" class="d">&quot;echo</text><text x="42.084" y="3.841" class="d">{a}</text></svg><svg x="3690"><use xlink:href="#a"/><use xlink:href="#b" x="45.996" y="2.146"/><use xlink:href="#1"/><use xlink:href="#8" y="2.171"/></svg><svg x="3772"><use xlink:href="#a"/><use xlink:href="#b" x="46.996" y="2.146"/><use xlink:href="#1"/><use xlink:href="#8" y="2.171"/></svg><svg x="3854"><use xlink:href="#a"/><use xlink:href="#b" x="47.996" y="2.146"/><use xlink:href="#1"/><text y="3.841" class="f">-&gt;</text><text x="3.006" y="3.841" class="d">argsearch</text><text x="13.026" y="3.841" class="d">--output-json</text><text x="27.054" y="3.841" class="d">random</text><text x="34.068" y="3.841" class="d">3</text><text x="36.072" y="3.841" class="d">&quot;echo</text><text x="42.084" y="3.841" class="d">{a};</text><text x="47.094" y="3.841" class="d">s</text></svg><svg x="3936"><use xlink:href="#a"/><use xlink:href="#b" x="48.996" y="2.146"/><use xlink:href="#1"/><text y="3.841" class="f">-&gt;</text><text x="3.006" y="3.841" class="d">argsearch</text><text x="13.026" y="3.841" class="d">--output-json</text><text x="27.054" y="3.841" class="d">random</text><text x="34.068" y="3.841" class="d">3</text><text x="36.072" y="3.841" class="d">&quot;echo</text><text x="42.084" y="3.841" class="d">{a};</text><text x="47.094" y="3.841" class="d">sl</text></svg><svg x="4018"><use xlink:href="#a"/><use xlink:href="#b" x="49.996" y="2.146"/><use xlink:href="#1"/><text y="3.841" class="f">-&gt;</text><text x="3.006" y="3.841" class="d">argsearch</text><text x="13.026" y="3.841" class="d">--output-json</text><text x="27.054" y="3.841" class="d">random</text><text x="34.068" y="3.841" class="d">3</text><text x="36.072" y="3.841" class="d">&quot;echo</text><text x="42.084" y="3.841" class="d">{a};</text><text x="47.094" y="3.841" class="d">sle</text></svg><svg x="4100"><use xlink:href="#a"/><use xlink:href="#b" x="50.996" y="2.146"/><use xlink:href="#1"/><text y="3.841" class="f">-&gt;</text><text x="3.006" y="3.841" class="d">argsearch</text><text x="13.026" y="3.841" class="d">--output-json</text><text x="27.054" y="3.841" class="d">random</text><text x="34.068" y="3.841" class="d">3</text><text x="36.072" y="3.841" class="d">&quot;echo</text><text x="42.084" y="3.841" class="d">{a};</text><text x="47.094" y="3.841" class="d">slee</text></svg><svg x="4182"><use xlink:href="#a"/><use xlink:href="#b" x="51.996" y="2.146"/><use xlink:href="#1"/><use xlink:href="#9" y="2.171"/></svg><svg x="4264"><use xlink:href="#a"/><use xlink:href="#b" x="52.996" y="2.146"/><use xlink:href="#1"/><use xlink:href="#9" y="2.171"/></svg><svg x="4346"><use xlink:href="#a"/><use xlink:href="#b" x="53.996" y="2.146"/><use xlink:href="#1"/><text y="3.841" class="f">-&gt;</text><text x="3.006" y="3.841" class="d">argsearch</text><text x="13.026" y="3.841" class="d">--output-json</text><text x="27.054" y="3.841" class="d">random</text><text x="34.068" y="3.841" class="d">3</text><text x="36.072" y="3.841" class="d">&quot;echo</text><text x="42.084" y="3.841" class="d">{a};</text><text x="47.094" y="3.841" class="d">sleep</text><text x="53.106" y="3.841" class="d">0</text></svg><svg x="4428"><use xlink:href="#a"/><use xlink:href="#b" x="54.996" y="2.146"/><use xlink:href="#1"/><text y="3.841" class="f">-&gt;</text><text x="3.006" y="3.841" class="d">argsearch</text><text x="13.026" y="3.841" class="d">--output-json</text><text x="27.054" y="3.841" class="d">random</text><text x="34.068" y="3.841" class="d">3</text><text x="36.072" y="3.841" class="d">&quot;echo</text><text x="42.084" y="3.841" class="d">{a};</text><text x="47.094" y="3.841" class="d">sleep</text><text x="53.106" y="3.841" class="d">0.</text></svg><svg x="4510"><use xlink:href="#a"/><use xlink:href="#b" x="55.996" y="2.146"/><use xlink:href="#1"/><text y="3.841" class="f">-&gt;</text><text x="3.006" y="3.841" class="d">argsearch</text><text x="13.026" y="3.841" class="d">--output-json</text><text x="27.054" y="3.841" class="d">random</text><text x="34.068" y="3.841" class="d">3</text><text x="36.072" y="3.841" class="d">&quot;echo</text><text x="42.084" y="3.841" class="d">{a};</text><text x="47.094" y="3.841" class="d">sleep</text><text x="53.106" y="3.841" class="d">0.5</text></svg><svg x="4592"><use xlink:href="#a"/><use xlink:href="#b" x="56.996" y="2.146"/><use xlink:href="#1"/><use xlink:href="#10" y="2.171"/></svg><svg x="4674"><use xlink:href="#a"/><use xlink:href="#b" x="57.996" y="2.146"/><use xlink:href="#1"/><use xlink:href="#10" y="2.171"/></svg><svg x="4756"><use xlink:href="#a"/><use xlink:href="#b" x="58.996" y="2.146"/><use xlink:href="#1"/><text y="3.841" class="f">-&gt;</text><text x="3.006" y="3.841" class="d">argsearch</text><text x="13.026" y="3.841" class="d">--output-json</text><text x="27.054" y="3.841" class="d">random</text><text x="34.068" y="3.841" class="d">3</text><text x="36.072" y="3.841" class="d">&quot;echo</text><text x="42.084" y="3.841" class="d">{a};</text><text x="47.094" y="3.841" class="d">sleep</text><text x="53.106" y="3.841" class="d">0.5&quot;</text><text x="58.116" y="3.841" class="d">-</text></svg><svg x="4838"><use xlink:href="#a"/><use xlink:href="#b" x="59.996" y="2.146"/><use xlink:href="#1"/><text y="3.841" class="f">-&gt;</text><text x="3.006" y="3.841" class="d">argsearch</text><text x="13.026" y="3.841" class="d">--output-json</text><text x="27.054" y="3.841" class="d">random</text><text x="34.068" y="3.841" class="d">3</text><text x="36.072" y="3.841" class="d">&quot;echo</text><text x="42.084" y="3.841" class="d">{a};</text><text x="47.094" y="3.841" class="d">sleep</text><text x="53.106" y="3.841" class="d">0.5&quot;</text><text x="58.116" y="3.841" class="d">--</text></svg><svg x="4920"><use xlink:href="#a"/><use xlink:href="#b" x="60.996" y="2.146"/><use xlink:href="#1"/><use xlink:href="#11" y="2.171"/></svg><svg x="5002"><use xlink:href="#a"/><use xlink:href="#b" x="61.996" y="2.146"/><use xlink:href="#1"/><use xlink:href="#11" y="2.171"/></svg><svg x="5084"><use xlink:href="#a"/><use xlink:href="#b" x="62.996" y="2.146"/><use xlink:href="#1"/><text y="3.841" class="f">-&gt;</text><text x="3.006" y="3.841" class="d">argsearch</text><text x="13.026" y="3.841" class="d">--output-json</text><text x="27.054" y="3.841" class="d">random</text><text x="34.068" y="3.841" class="d">3</text><text x="36.072" y="3.841" class="d">&quot;echo</text><text x="42.084" y="3.841" class="d">{a};</text><text x="47.094" y="3.841" class="d">sleep</text><text x="53.106" y="3.841" class="d">0.5&quot;</text><text x="58.116" y="3.841" class="d">--a</text><text x="62.124" y="3.841" class="d">0</text></svg><svg x="5166"><use xlink:href="#a"/><use xlink:href="#b" x="63.996" y="2.146"/><use xlink:href="#1"/><text y="3.841" class="f">-&gt;</text><text x="3.006" y="3.841" class="d">argsearch</text><text x="13.026" y="3.841" class="d">--output-json</text><text x="27.054" y="3.841" class="d">random</text><text x="34.068" y="3.841" class="d">3</text><text x="36.072" y="3.841" class="d">&quot;echo</text><text x="42.084" y="3.841" class="d">{a};</text><text x="47.094" y="3.841" class="d">sleep</text><text x="53.106" y="3.841" class="d">0.5&quot;</text><text x="58.116" y="3.841" class="d">--a</text><text x="62.124" y="3.841" class="d">0.</text></svg><svg x="5248"><use xlink:href="#a"/><use xlink:href="#b" x="64.996" y="2.146"/><use xlink:href="#1"/><use xlink:href="#12" y="2.171"/></svg><svg x="5330"><use xlink:href="#a"/><use xlink:href="#b" x="65.996" y="2.146"/><use xlink:href="#1"/><use xlink:href="#12" y="2.171"/></svg><svg x="5412"><use xlink:href="#a"/><use xlink:href="#b" x="66.996" y="2.146"/><use xlink:href="#1"/><text y="3.841" class="f">-&gt;</text><text x="3.006" y="3.841" class="d">argsearch</text><text x="13.026" y="3.841" class="d">--output-json</text><text x="27.054" y="3.841" class="d">random</text><text x="34.068" y="3.841" class="d">3</text><text x="36.072" y="3.841" class="d">&quot;echo</text><text x="42.084" y="3.841" class="d">{a};</text><text x="47.094" y="3.841" class="d">sleep</text><text x="53.106" y="3.841" class="d">0.5&quot;</text><text x="58.116" y="3.841" class="d">--a</text><text x="62.124" y="3.841" class="d">0.0</text><text x="66.132" y="3.841" class="d">1</text></svg><svg x="5494"><use xlink:href="#a"/><use xlink:href="#b" x="67.996" y="2.146"/><use xlink:href="#1"/><text y="3.841" class="f">-&gt;</text><text x="3.006" y="3.841" class="d">argsearch</text><text x="13.026" y="3.841" class="d">--output-json</text><text x="27.054" y="3.841" class="d">random</text><text x="34.068" y="3.841" class="d">3</text><text x="36.072" y="3.841" class="d">&quot;echo</text><text x="42.084" y="3.841" class="d">{a};</text><text x="47.094" y="3.841" class="d">sleep</text><text x="53.106" y="3.841" class="d">0.5&quot;</text><text x="58.116" y="3.841" class="d">--a</text><text x="62.124" y="3.841" class="d">0.0</text><text x="66.132" y="3.841" class="d">1.</text></svg><svg x="5576"><use xlink:href="#a"/><use xlink:href="#b" x="68.996" y="2.146"/><use xlink:href="#1"/><use xlink:href="#13" y="2.171"/></svg><svg x="5658"><use xlink:href="#a"/><use xlink:href="#b" x="69.996" y="2.146"/><use xlink:href="#1"/><use xlink:href="#13" y="2.171"/></svg><svg x="5740"><use xlink:href="#a"/><use xlink:href="#b" x="70.996" y="2.146"/><use xlink:href="#1"/><use xlink:href="#14" y="2.171"/></svg><svg x="5822"><use xlink:href="#a"/><use xlink:href="#b" x="71.996" y="2.146"/><use xlink:href="#1"/><use xlink:href="#14" y="2.171"/></svg><svg x="5904"><use xlink:href="#a"/><use xlink:href="#b" x="72.996" y="2.146"/><use xlink:href="#1"/><text y="3.841" class="f">-&gt;</text><text x="3.006" y="3.841" class="d">argsearch</text><text x="13.026" y="3.841" class="d">--output-json</text><text x="27.054" y="3.841" class="d">random</text><text x="34.068" y="3.841" class="d">3</text><text x="36.072" y="3.841" class="d">&quot;echo</text><text x="42.084" y="3.841" class="d">{a};</text><text x="47.094" y="3.841" class="d">sleep</text><text x="53.106" y="3.841" class="d">0.5&quot;</text><text x="58.116" y="3.841" class="d">--a</text><text x="62.124" y="3.841" class="d">0.0</text><text x="66.132" y="3.841" class="d">1.0</text><text x="70.14" y="3.841" class="d">|</text><text x="72.144" y="3.841" class="d">j</text></svg><svg x="5986"><use xlink:href="#a"/><use xlink:href="#b" x="73.996" y="2.146"/><use xlink:href="#1"/><use xlink:href="#15" y="2.171"/></svg><svg x="6068"><use xlink:href="#a"/><use xlink:href="#b" x="-.004" y="4.317"/><use xlink:href="#1"/><use xlink:href="#15" y="2.171"/></svg><svg x="6150"><use xlink:href="#a"/><use xlink:href="#b" x="81.996" y="4.317"/><use xlink:href="#1"/><use xlink:href="#15" y="2.171"/><text x="2.004" y="6.012" class="d">0%|</text><text x="60.12" y="6.012" class="d">|</text><text x="62.124" y="6.012" class="d">0/3</text><text x="66.132" y="6.012" class="d">[00:00&lt;?,</text><text x="76.152" y="6.012" class="d">?it/s]</text></svg><svg x="6232"><use xlink:href="#a"/><use xlink:href="#b" x="81.996" y="4.317"/><use xlink:href="#1"/><use xlink:href="#15" y="2.171"/><text y="6.012" class="d">echo</text><text x="5.01" y="6.012" class="d">0.27173721798983497;</text><text x="26.052" y="6.012" class="d">sleep</text><text x="32.064" y="6.012" class="d">0.5:</text><text x="39.078" y="6.012" class="d">0%|</text><text x="60.12" y="6.012" class="d">|</text><text x="62.124" y="6.012" class="d">0/3</text><text x="66.132" y="6.012" class="d">[00:00&lt;?,</text><text x="76.152" y="6.012" class="d">?it/s]</text></svg><svg x="6314"><use xlink:href="#a"/><use xlink:href="#b" x="81.996" y="4.317"/><use xlink:href="#1"/><use xlink:href="#15" y="2.171"/><text y="6.012" class="d">echo</text><text x="5.01" y="6.012" class="d">0.27173721798983497;</text><text x="26.052" y="6.012" class="d">sleep</text><text x="32.064" y="6.012" class="d">0.5:</text><text x="38.076" y="6.012" class="d">33%|███▎</text><text x="52.104" y="6.012" class="d">|</text><text x="54.108" y="6.012" class="d">1/3</text><text x="58.116" y="6.012" class="d">[00:00&lt;00:01,</text><text x="73.146" y="6.012" class="d">1.96it/s]</text></svg><svg x="6396"><use xlink:href="#a"/><use xlink:href="#b" x="81.996" y="4.317"/><use xlink:href="#1"/><use xlink:href="#15" y="2.171"/><text y="6.012" class="d">echo</text><text x="5.01" y="6.012" class="d">0.6603138498819711;</text><text x="25.05" y="6.012" class="d">sleep</text><text x="31.062" y="6.012" class="d">0.5:</text><text x="37.074" y="6.012" class="d">33%|███▋</text><text x="52.104" y="6.012" class="d">|</text><text x="54.108" y="6.012" class="d">1/3</text><text x="58.116" y="6.012" class="d">[00:00&lt;00:01,</text><text x="73.146" y="6.012" class="d">1.96it/s]</text></svg><svg x="6478"><use xlink:href="#a"/><use xlink:href="#b" x="81.996" y="4.317"/><use xlink:href="#1"/><use xlink:href="#15" y="2.171"/><text y="6.012" class="d">echo</text><text x="5.01" y="6.012" class="d">0.6603138498819711;</text><text x="25.05" y="6.012" class="d">sleep</text><text x="31.062" y="6.012" class="d">0.5:</text><text x="37.074" y="6.012" class="d">67%|███████▎</text><text x="52.104" y="6.012" class="d">|</text><text x="54.108" y="6.012" class="d">2/3</text><text x="58.116" y="6.012" class="d">[00:01&lt;00:00,</text><text x="73.146" y="6.012" class="d">1.97it/s]</text></svg><svg x="6560"><use xlink:href="#a"/><use xlink:href="#b" x="81.996" y="4.317"/><use xlink:href="#1"/><use xlink:href="#15" y="2.171"/><text y="6.012" class="d">echo</text><text x="5.01" y="6.012" class="d">0.2032817352227032;</text><text x="25.05" y="6.012" class="d">sleep</text><text x="31.062" y="6.012" class="d">0.5:</text><text x="37.074" y="6.012" class="d">67%|███████▎</text><text x="52.104" y="6.012" class="d">|</text><text x="54.108" y="6.012" class="d">2/3</text><text x="58.116" y="6.012" class="d">[00:01&lt;00:00,</text><text x="73.146" y="6.012" class="d">1.97it/s]</text></svg><svg x="6642"><use xlink:href="#a"/><use xlink:href="#b" x="81.996" y="4.317"/><use xlink:href="#1"/><use xlink:href="#15" y="2.171"/><text y="6.012" class="d">echo</text><text x="5.01" y="6.012" class="d">0.2032817352227032;</text><text x="25.05" y="6.012" class="d">sleep</text><text x="31.062" y="6.012" class="d">0.5:</text><text x="36.072" y="6.012" class="d">100%|███████████|</text><text x="54.108" y="6.012" class="d">3/3</text><text x="58.116" y="6.012" class="d">[00:01&lt;00:00,</text><text x="73.146" y="6.012" class="d">1.96it/s]</text></svg><svg x="6724"><use xlink:href="#a"/><use xlink:href="#b" x="-.004" y="6.488"/><use xlink:href="#1"/><use xlink:href="#15" y="2.171"/><use xlink:href="#16" y="4.342"/></svg><svg x="6806"><use xlink:href="#a"/><use xlink:href="#b" x="11.996" y="45.566"/><use xlink:href="#1"/><use xlink:href="#15" y="2.171"/><use xlink:href="#16" y="4.342"/><text y="8.183" class="g">[</text><use xlink:href="#17" y="8.684"/><use xlink:href="#18" y="10.855"/><use xlink:href="#19" y="13.026"/><use xlink:href="#20" y="15.197"/><use xlink:href="#21" y="17.368"/><use xlink:href="#22" y="19.539"/><use xlink:href="#23" y="21.71"/><use xlink:href="#17" y="23.881"/><use xlink:href="#24" y="26.052"/><use xlink:href="#25" y="28.223"/><use xlink:href="#26" y="30.394"/><use xlink:href="#21" y="32.565"/><use xlink:href="#22" y="34.736"/><use xlink:href="#23" y="36.907"/><use xlink:href="#17" y="39.078"/><use xlink:href="#27" y="41.249"/><use xlink:href="#28" y="43.42"/><text x="4.008" y="47.261" class="h">&quot;stdout&quot;</text></svg><svg x="6888"><use xlink:href="#a"/><use xlink:href="#b" x="-.004" y="45.566"/><use xlink:href="#18"/><use xlink:href="#19" y="2.171"/><use xlink:href="#20" y="4.342"/><use xlink:href="#21" y="6.513"/><use xlink:href="#22" y="8.684"/><use xlink:href="#23" y="10.855"/><use xlink:href="#17" y="13.026"/><use xlink:href="#24" y="15.197"/><use xlink:href="#25" y="17.368"/><use xlink:href="#26" y="19.539"/><use xlink:href="#21" y="21.71"/><use xlink:href="#22" y="23.881"/><use xlink:href="#23" y="26.052"/><use xlink:href="#17" y="28.223"/><use xlink:href="#27" y="30.394"/><use xlink:href="#28" y="32.565"/><use xlink:href="#29" y="34.736"/><use xlink:href="#21" y="36.907"/><use xlink:href="#22" y="39.078"/><use xlink:href="#30" y="41.249"/><use xlink:href="#31" y="43.42"/></svg><svg x="6970"><use xlink:href="#a"/><use xlink:href="#b" x="-.004" y="45.566"/><use xlink:href="#18"/><use xlink:href="#19" y="2.171"/><use xlink:href="#20" y="4.342"/><use xlink:href="#21" y="6.513"/><use xlink:href="#22" y="8.684"/><use xlink:href="#23" y="10.855"/><use xlink:href="#17" y="13.026"/><use xlink:href="#24" y="15.197"/><use xlink:href="#25" y="17.368"/><use xlink:href="#26" y="19.539"/><use xlink:href="#21" y="21.71"/><use xlink:href="#22" y="23.881"/><use xlink:href="#23" y="26.052"/><use xlink:href="#17" y="28.223"/><use xlink:href="#27" y="30.394"/><use xlink:href="#28" y="32.565"/><use xlink:href="#29" y="34.736"/><use xlink:href="#21" y="36.907"/><use xlink:href="#22" y="39.078"/><use xlink:href="#30" y="41.249"/><use xlink:href="#31" y="43.42"/></svg><svg x="7052"><use xlink:href="#a"/><use xlink:href="#b" x="2.996" y="45.566"/><use xlink:href="#19"/><use xlink:href="#20" y="2.171"/><use xlink:href="#21" y="4.342"/><use xlink:href="#22" y="6.513"/><use xlink:href="#23" y="8.684"/><use xlink:href="#17" y="10.855"/><use xlink:href="#24" y="13.026"/><use xlink:href="#25" y="15.197"/><use xlink:href="#26" y="17.368"/><use xlink:href="#21" y="19.539"/><use xlink:href="#22" y="21.71"/><use xlink:href="#23" y="23.881"/><use xlink:href="#17" y="26.052"/><use xlink:href="#27" y="28.223"/><use xlink:href="#28" y="30.394"/><use xlink:href="#29" y="32.565"/><use xlink:href="#21" y="34.736"/><use xlink:href="#22" y="36.907"/><use xlink:href="#30" y="39.078"/><use xlink:href="#31" y="41.249"/><use xlink:href="#32" y="43.42"/><use xlink:href="#2" y="45.591"/></svg><svg x="7134"><use xlink:href="#a"/><use xlink:href="#b" x="-.004" y="45.566"/><use xlink:href="#20"/><use xlink:href="#21" y="2.171"/><use xlink:href="#22" y="4.342"/><use xlink:href="#23" y="6.513"/><use xlink:href="#17" y="8.684"/><use xlink:href="#24" y="10.855"/><use xlink:href="#25" y="13.026"/><use xlink:href="#26" y="15.197"/><use xlink:href="#21" y="17.368"/><use xlink:href="#22" y="19.539"/><use xlink:href="#23" y="21.71"/><use xlink:href="#17" y="23.881"/><use xlink:href="#27" y="26.052"/><use xlink:href="#28" y="28.223"/><use xlink:href="#29" y="30.394"/><use xlink:href="#21" y="32.565"/><use xlink:href="#22" y="34.736"/><use xlink:href="#30" y="36.907"/><use xlink:href="#31" y="39.078"/><use xlink:href="#32" y="41.249"/><text y="45.09" class="f">-&gt;</text><text x="3.006" y="45.09" class="d">exit</text></svg></svg></g></g></svg></svg>